<?xml version="1.0" encoding="us-ascii" standalone="no"?><svg xmlns="http://www.w3.org/2000/svg" xmlns:xlink="http://www.w3.org/1999/xlink" contentStyleType="text/css" height="581px" preserveAspectRatio="none" style="width:576px;height:581px;background:#FFFFFF;" version="1.1" viewBox="0 0 576 581" width="576px" zoomAndPan="magnify"><defs/><g><!--class customers--><g id="elem_customers"><rect codeLine="25" fill="#FFFFFF" height="176.3125" id="customers" rx="2.5" ry="2.5" style="stroke:#2E8B57;stroke-width:0.5;" width="372.3333" x="7" y="7"/><text fill="#000000" font-family="sans-serif" font-size="14" font-weight="bold" lengthAdjust="spacing" textLength="87" x="149.6667" y="24.9951">Customers</text><text fill="#808080" font-family="sans-serif" font-size="10" lengthAdjust="spacing" textLength="64" x="161.1667" y="37.5791">(customers)</text><line style="stroke:#2E8B57;stroke-width:0.5;" x1="8" x2="378.3333" y1="44.9375" y2="44.9375"/><path d="M20.4167,52.401 C18.8067,52.401 17.5,53.7077 17.5,55.3177 C17.5,55.5044 17.5,55.691 17.535,55.866 L14,59.401 L14,61.7344 L17.5,61.7344 L17.5,59.401 L19.8333,59.401 L19.8333,58.2344 L19.8683,58.1994 C20.0433,58.2344 20.23,58.2344 20.4167,58.2344 C22.0267,58.2344 23.3333,56.9277 23.3333,55.3177 C23.3333,53.7077 22.0267,52.401 20.4167,52.401 M21,53.5677 C21.6417,53.5677 22.1667,54.0927 22.1667,54.7344 C22.1667,55.376 21.6417,55.901 21,55.901 C20.3583,55.901 19.8333,55.376 19.8333,54.7344 C19.8333,54.0927 20.3583,53.5677 21,53.5677 " fill="#B8860B" style="stroke:;stroke-width:0.0;stroke-dasharray:;"/><text fill="#000000" font-family="sans-serif" font-size="14" font-weight="bold" lengthAdjust="spacing" textLength="92" x="29.3333" y="61.9326">customerid</text><text fill="#000000" font-family="sans-serif" font-size="14" lengthAdjust="spacing" textLength="42" x="121.3333" y="61.9326">: UUID</text><path d="M17.5,68.6979 C15.5633,68.6979 14,70.2612 14,72.1979 C14,74.1346 15.5633,75.6979 17.5,75.6979 C19.4367,75.6979 21,74.1346 21,72.1979 C21,70.2612 19.4367,68.6979 17.5,68.6979 " fill="#EFEFEF" style="stroke:;stroke-width:0.0;stroke-dasharray:;"/><text fill="#000000" font-family="sans-serif" font-size="14" lengthAdjust="spacing" textLength="86" x="28.3333" y="78.2295">name: TEXT</text><path d="M17.5,84.9948 C15.5633,84.9948 14,86.5581 14,88.4948 C14,90.4315 15.5633,91.9948 17.5,91.9948 C19.4367,91.9948 21,90.4315 21,88.4948 C21,86.5581 19.4367,84.9948 17.5,84.9948 " fill="#EFEFEF" style="stroke:;stroke-width:0.0;stroke-dasharray:;"/><text fill="#000000" font-family="sans-serif" font-size="14" lengthAdjust="spacing" textLength="85" x="28.3333" y="94.5264">email: TEXT</text><path d="M17.5,101.2917 C15.5633,101.2917 14,102.855 14,104.7917 C14,106.7283 15.5633,108.2917 17.5,108.2917 C19.4367,108.2917 21,106.7283 21,104.7917 C21,102.855 19.4367,101.2917 17.5,101.2917 " fill="#EFEFEF" style="stroke:;stroke-width:0.0;stroke-dasharray:;"/><text fill="#000000" font-family="sans-serif" font-size="14" lengthAdjust="spacing" textLength="92" x="28.3333" y="110.8232">phone: TEXT</text><path d="M17.5,117.5885 C15.5633,117.5885 14,119.1519 14,121.0885 C14,123.0252 15.5633,124.5885 17.5,124.5885 C19.4367,124.5885 21,123.0252 21,121.0885 C21,119.1519 19.4367,117.5885 17.5,117.5885 " fill="#EFEFEF" style="stroke:;stroke-width:0.0;stroke-dasharray:;"/><text fill="#000000" font-family="sans-serif" font-size="14" lengthAdjust="spacing" textLength="101" x="28.3333" y="127.1201">address: TEXT</text><path d="M17.5,133.8854 C15.5633,133.8854 14,135.4488 14,137.3854 C14,139.3221 15.5633,140.8854 17.5,140.8854 C19.4367,140.8854 21,139.3221 21,137.3854 C21,135.4488 19.4367,133.8854 17.5,133.8854 " fill="#EFEFEF" style="stroke:;stroke-width:0.0;stroke-dasharray:;"/><text fill="#000000" font-family="sans-serif" font-size="14" lengthAdjust="spacing" textLength="122" x="28.3333" y="143.417">active: BOOLEAN</text><path d="M17.5,150.1823 C15.5633,150.1823 14,151.7456 14,153.6823 C14,155.619 15.5633,157.1823 17.5,157.1823 C19.4367,157.1823 21,155.619 21,153.6823 C21,151.7456 19.4367,150.1823 17.5,150.1823 " fill="#EFEFEF" style="stroke:;stroke-width:0.0;stroke-dasharray:;"/><text fill="#000000" font-family="sans-serif" font-size="14" lengthAdjust="spacing" textLength="341" x="28.3333" y="159.7139">created_at: TIMESTAMP WITHOUT TIME ZONE(6)</text><path d="M17.5,166.4792 C15.5633,166.4792 14,168.0425 14,169.9792 C14,171.9158 15.5633,173.4792 17.5,173.4792 C19.4367,173.4792 21,171.9158 21,169.9792 C21,168.0425 19.4367,166.4792 17.5,166.4792 " fill="#EFEFEF" style="stroke:;stroke-width:0.0;stroke-dasharray:;"/><text fill="#000000" font-family="sans-serif" font-size="14" lengthAdjust="spacing" textLength="345" x="28.3333" y="176.0107">updated_at: TIMESTAMP WITHOUT TIME ZONE(6)</text></g><!--class invoices--><g id="elem_invoices"><rect codeLine="36" fill="#FFFFFF" height="160.0156" id="invoices" rx="2.5" ry="2.5" style="stroke:#2E8B57;stroke-width:0.5;" width="372.3333" x="7" y="243"/><text fill="#000000" font-family="sans-serif" font-size="14" font-weight="bold" lengthAdjust="spacing" textLength="66" x="160.1667" y="260.9951">Invoices</text><text fill="#808080" font-family="sans-serif" font-size="10" lengthAdjust="spacing" textLength="52" x="167.1667" y="273.5791">(invoices)</text><line style="stroke:#2E8B57;stroke-width:0.5;" x1="8" x2="378.3333" y1="280.9375" y2="280.9375"/><path d="M20.4167,288.401 C18.8067,288.401 17.5,289.7077 17.5,291.3177 C17.5,291.5044 17.5,291.691 17.535,291.866 L14,295.401 L14,297.7344 L17.5,297.7344 L17.5,295.401 L19.8333,295.401 L19.8333,294.2344 L19.8683,294.1994 C20.0433,294.2344 20.23,294.2344 20.4167,294.2344 C22.0267,294.2344 23.3333,292.9277 23.3333,291.3177 C23.3333,289.7077 22.0267,288.401 20.4167,288.401 M21,289.5677 C21.6417,289.5677 22.1667,290.0927 22.1667,290.7344 C22.1667,291.376 21.6417,291.901 21,291.901 C20.3583,291.901 19.8333,291.376 19.8333,290.7344 C19.8333,290.0927 20.3583,289.5677 21,289.5677 " fill="#B8860B" style="stroke:;stroke-width:0.0;stroke-dasharray:;"/><text fill="#000000" font-family="sans-serif" font-size="14" font-weight="bold" lengthAdjust="spacing" textLength="72" x="29.3333" y="297.9326">invoiceid</text><text fill="#000000" font-family="sans-serif" font-size="14" lengthAdjust="spacing" textLength="42" x="101.3333" y="297.9326">: UUID</text><path d="M17.5,304.6979 C15.5633,304.6979 14,306.2613 14,308.1979 C14,310.1346 15.5633,311.6979 17.5,311.6979 C19.4367,311.6979 21,310.1346 21,308.1979 C21,306.2613 19.4367,304.6979 17.5,304.6979 " fill="#EFEFEF" style="stroke:;stroke-width:0.0;stroke-dasharray:;"/><text fill="#000000" font-family="sans-serif" font-size="14" lengthAdjust="spacing" textLength="153" x="28.3333" y="314.2295">invoicdnumber: TEXT</text><path d="M17.5,320.9948 C15.5633,320.9948 14,322.5581 14,324.4948 C14,326.4315 15.5633,327.9948 17.5,327.9948 C19.4367,327.9948 21,326.4315 21,324.4948 C21,322.5581 19.4367,320.9948 17.5,320.9948 " fill="#EFEFEF" style="stroke:;stroke-width:0.0;stroke-dasharray:;"/><text fill="#000000" font-family="sans-serif" font-size="14" lengthAdjust="spacing" textLength="90" x="28.3333" y="330.5264">status: TEXT</text><path d="M17.5,337.2917 C15.5633,337.2917 14,338.855 14,340.7917 C14,342.7283 15.5633,344.2917 17.5,344.2917 C19.4367,344.2917 21,342.7283 21,340.7917 C21,338.855 19.4367,337.2917 17.5,337.2917 " fill="#EFEFEF" style="stroke:;stroke-width:0.0;stroke-dasharray:;"/><text fill="#000000" font-family="sans-serif" font-size="14" lengthAdjust="spacing" textLength="322" x="28.3333" y="346.8232">duedate: TIMESTAMP WITHOUT TIME ZONE(6)</text><path d="M17.5,353.5885 C15.5633,353.5885 14,355.1519 14,357.0885 C14,359.0252 15.5633,360.5885 17.5,360.5885 C19.4367,360.5885 21,359.0252 21,357.0885 C21,355.1519 19.4367,353.5885 17.5,353.5885 " fill="#EFEFEF" style="stroke:;stroke-width:0.0;stroke-dasharray:;"/><text fill="#000000" font-family="sans-serif" font-size="14" lengthAdjust="spacing" textLength="341" x="28.3333" y="363.1201">created_at: TIMESTAMP WITHOUT TIME ZONE(6)</text><path d="M17.5,369.8854 C15.5633,369.8854 14,371.4488 14,373.3854 C14,375.3221 15.5633,376.8854 17.5,376.8854 C19.4367,376.8854 21,375.3221 21,373.3854 C21,371.4488 19.4367,369.8854 17.5,369.8854 " fill="#EFEFEF" style="stroke:;stroke-width:0.0;stroke-dasharray:;"/><text fill="#000000" font-family="sans-serif" font-size="14" lengthAdjust="spacing" textLength="345" x="28.3333" y="379.417">updated_at: TIMESTAMP WITHOUT TIME ZONE(6)</text><path d="M20.4167,386.1823 C18.8067,386.1823 17.5,387.489 17.5,389.099 C17.5,389.2856 17.5,389.4723 17.535,389.6473 L14,393.1823 L14,395.5156 L17.5,395.5156 L17.5,393.1823 L19.8333,393.1823 L19.8333,392.0156 L19.8683,391.9806 C20.0433,392.0156 20.23,392.0156 20.4167,392.0156 C22.0267,392.0156 23.3333,390.709 23.3333,389.099 C23.3333,387.489 22.0267,386.1823 20.4167,386.1823 M21,387.349 C21.6417,387.349 22.1667,387.874 22.1667,388.5156 C22.1667,389.1573 21.6417,389.6823 21,389.6823 C20.3583,389.6823 19.8333,389.1573 19.8333,388.5156 C19.8333,387.874 20.3583,387.349 21,387.349 " fill="#AAAAAA" style="stroke:;stroke-width:0.0;stroke-dasharray:;"/><text fill="#000000" font-family="sans-serif" font-size="14" lengthAdjust="spacing" textLength="161" x="28.3333" y="395.7139">customerId: UUID &#171;FK&#187;</text></g><!--class invoiceitems--><g id="elem_invoiceitems"><rect codeLine="46" fill="#FFFFFF" height="111.125" id="invoiceitems" rx="2.5" ry="2.5" style="stroke:#2E8B57;stroke-width:0.5;" width="179.3333" x="252.5" y="463"/><text fill="#000000" font-family="sans-serif" font-size="14" font-weight="bold" lengthAdjust="spacing" textLength="103" x="290.6667" y="480.9951">InvoiceItems</text><text fill="#808080" font-family="sans-serif" font-size="10" lengthAdjust="spacing" textLength="77" x="303.6667" y="493.5791">(invoiceitems)</text><line style="stroke:#2E8B57;stroke-width:0.5;" x1="253.5" x2="430.8333" y1="500.9375" y2="500.9375"/><path d="M265.9167,508.401 C264.3067,508.401 263,509.7077 263,511.3177 C263,511.5044 263,511.691 263.035,511.866 L259.5,515.401 L259.5,517.7344 L263,517.7344 L263,515.401 L265.3333,515.401 L265.3333,514.2344 L265.3683,514.1994 C265.5433,514.2344 265.73,514.2344 265.9167,514.2344 C267.5267,514.2344 268.8333,512.9277 268.8333,511.3177 C268.8333,509.7077 267.5267,508.401 265.9167,508.401 M266.5,509.5677 C267.1417,509.5677 267.6667,510.0927 267.6667,510.7344 C267.6667,511.376 267.1417,511.901 266.5,511.901 C265.8583,511.901 265.3333,511.376 265.3333,510.7344 C265.3333,510.0927 265.8583,509.5677 266.5,509.5677 " fill="#B8860B" style="stroke:;stroke-width:0.0;stroke-dasharray:;"/><text fill="#000000" font-family="sans-serif" font-size="14" font-weight="bold" lengthAdjust="spacing" textLength="109" x="274.8333" y="517.9326">invoiceitemid</text><text fill="#000000" font-family="sans-serif" font-size="14" lengthAdjust="spacing" textLength="42" x="383.8333" y="517.9326">: UUID</text><path d="M263,524.6979 C261.0633,524.6979 259.5,526.2613 259.5,528.1979 C259.5,530.1346 261.0633,531.6979 263,531.6979 C264.9367,531.6979 266.5,530.1346 266.5,528.1979 C266.5,526.2613 264.9367,524.6979 263,524.6979 " fill="#EFEFEF" style="stroke:;stroke-width:0.0;stroke-dasharray:;"/><text fill="#000000" font-family="sans-serif" font-size="14" lengthAdjust="spacing" textLength="131" x="273.8333" y="534.2295">quantity: INTEGER</text><path d="M265.9167,540.9948 C264.3067,540.9948 263,542.3015 263,543.9115 C263,544.0981 263,544.2848 263.035,544.4598 L259.5,547.9948 L259.5,550.3281 L263,550.3281 L263,547.9948 L265.3333,547.9948 L265.3333,546.8281 L265.3683,546.7931 C265.5433,546.8281 265.73,546.8281 265.9167,546.8281 C267.5267,546.8281 268.8333,545.5215 268.8333,543.9115 C268.8333,542.3015 267.5267,540.9948 265.9167,540.9948 M266.5,542.1615 C267.1417,542.1615 267.6667,542.6865 267.6667,543.3281 C267.6667,543.9698 267.1417,544.4948 266.5,544.4948 C265.8583,544.4948 265.3333,543.9698 265.3333,543.3281 C265.3333,542.6865 265.8583,542.1615 266.5,542.1615 " fill="#AAAAAA" style="stroke:;stroke-width:0.0;stroke-dasharray:;"/><text fill="#000000" font-family="sans-serif" font-size="14" lengthAdjust="spacing" textLength="150" x="273.8333" y="550.5264">productId: UUID &#171;FK&#187;</text><path d="M265.9167,557.2917 C264.3067,557.2917 263,558.5983 263,560.2083 C263,560.395 263,560.5817 263.035,560.7567 L259.5,564.2917 L259.5,566.625 L263,566.625 L263,564.2917 L265.3333,564.2917 L265.3333,563.125 L265.3683,563.09 C265.5433,563.125 265.73,563.125 265.9167,563.125 C267.5267,563.125 268.8333,561.8183 268.8333,560.2083 C268.8333,558.5983 267.5267,557.2917 265.9167,557.2917 M266.5,558.4583 C267.1417,558.4583 267.6667,558.9833 267.6667,559.625 C267.6667,560.2667 267.1417,560.7917 266.5,560.7917 C265.8583,560.7917 265.3333,560.2667 265.3333,559.625 C265.3333,558.9833 265.8583,558.4583 266.5,558.4583 " fill="#AAAAAA" style="stroke:;stroke-width:0.0;stroke-dasharray:;"/><text fill="#000000" font-family="sans-serif" font-size="14" lengthAdjust="spacing" textLength="144" x="273.8333" y="566.8232">invoiceId: UUID &#171;FK&#187;</text></g><!--class products--><g id="elem_products"><rect codeLine="53" fill="#FFFFFF" height="127.4219" id="products" rx="2.5" ry="2.5" style="stroke:#2E8B57;stroke-width:0.5;" width="155.3333" x="414.5" y="259.5"/><text fill="#000000" font-family="sans-serif" font-size="14" font-weight="bold" lengthAdjust="spacing" textLength="73" x="455.6667" y="277.4951">Products</text><text fill="#808080" font-family="sans-serif" font-size="10" lengthAdjust="spacing" textLength="55" x="464.6667" y="290.0791">(products)</text><line style="stroke:#2E8B57;stroke-width:0.5;" x1="415.5" x2="568.8333" y1="297.4375" y2="297.4375"/><path d="M427.9167,304.901 C426.3067,304.901 425,306.2077 425,307.8177 C425,308.0044 425,308.191 425.035,308.366 L421.5,311.901 L421.5,314.2344 L425,314.2344 L425,311.901 L427.3333,311.901 L427.3333,310.7344 L427.3683,310.6994 C427.5433,310.7344 427.73,310.7344 427.9167,310.7344 C429.5267,310.7344 430.8333,309.4277 430.8333,307.8177 C430.8333,306.2077 429.5267,304.901 427.9167,304.901 M428.5,306.0677 C429.1417,306.0677 429.6667,306.5927 429.6667,307.2344 C429.6667,307.876 429.1417,308.401 428.5,308.401 C427.8583,308.401 427.3333,307.876 427.3333,307.2344 C427.3333,306.5927 427.8583,306.0677 428.5,306.0677 " fill="#B8860B" style="stroke:;stroke-width:0.0;stroke-dasharray:;"/><text fill="#000000" font-family="sans-serif" font-size="14" font-weight="bold" lengthAdjust="spacing" textLength="79" x="436.8333" y="314.4326">productid</text><text fill="#000000" font-family="sans-serif" font-size="14" lengthAdjust="spacing" textLength="42" x="515.8333" y="314.4326">: UUID</text><path d="M425,321.1979 C423.0633,321.1979 421.5,322.7613 421.5,324.6979 C421.5,326.6346 423.0633,328.1979 425,328.1979 C426.9367,328.1979 428.5,326.6346 428.5,324.6979 C428.5,322.7613 426.9367,321.1979 425,321.1979 " fill="#EFEFEF" style="stroke:;stroke-width:0.0;stroke-dasharray:;"/><text fill="#000000" font-family="sans-serif" font-size="14" lengthAdjust="spacing" textLength="86" x="435.8333" y="330.7295">name: TEXT</text><path d="M425,337.4948 C423.0633,337.4948 421.5,339.0581 421.5,340.9948 C421.5,342.9315 423.0633,344.4948 425,344.4948 C426.9367,344.4948 428.5,342.9315 428.5,340.9948 C428.5,339.0581 426.9367,337.4948 425,337.4948 " fill="#EFEFEF" style="stroke:;stroke-width:0.0;stroke-dasharray:;"/><text fill="#000000" font-family="sans-serif" font-size="14" lengthAdjust="spacing" textLength="128" x="435.8333" y="347.0264">description: TEXT</text><path d="M425,353.7917 C423.0633,353.7917 421.5,355.355 421.5,357.2917 C421.5,359.2283 423.0633,360.7917 425,360.7917 C426.9367,360.7917 428.5,359.2283 428.5,357.2917 C428.5,355.355 426.9367,353.7917 425,353.7917 " fill="#EFEFEF" style="stroke:;stroke-width:0.0;stroke-dasharray:;"/><text fill="#000000" font-family="sans-serif" font-size="14" lengthAdjust="spacing" textLength="122" x="435.8333" y="363.3232">active: BOOLEAN</text><path d="M425,370.0885 C423.0633,370.0885 421.5,371.6519 421.5,373.5885 C421.5,375.5252 423.0633,377.0885 425,377.0885 C426.9367,377.0885 428.5,375.5252 428.5,373.5885 C428.5,371.6519 426.9367,370.0885 425,370.0885 " fill="#EFEFEF" style="stroke:;stroke-width:0.0;stroke-dasharray:;"/><text fill="#000000" font-family="sans-serif" font-size="14" lengthAdjust="spacing" textLength="110" x="435.8333" y="379.6201">price: NUMERIC</text></g><!--link customers to invoices--><g id="link_customers_invoices"><path codeLine="61" d="M193,191.151 C193,191.151 193,234.91 193,234.91 " fill="none" id="customers-invoices" style="stroke:#2E8B57;stroke-width:1.0;"/><line style="stroke:#2E8B57;stroke-width:1.0;" x1="189" x2="197" y1="187.151" y2="187.151"/><line style="stroke:#2E8B57;stroke-width:1.0;" x1="189" x2="197" y1="190.151" y2="190.151"/><line style="stroke:#2E8B57;stroke-width:1.0;" x1="193" x2="193" y1="191.151" y2="183.151"/><line style="stroke:#2E8B57;stroke-width:1.0;" x1="193" x2="199" y1="234.91" y2="242.91"/><line style="stroke:#2E8B57;stroke-width:1.0;" x1="193" x2="187" y1="234.91" y2="242.91"/><line style="stroke:#2E8B57;stroke-width:1.0;" x1="193" x2="193" y1="234.91" y2="242.91"/><ellipse cx="193" cy="228.91" fill="none" rx="4" ry="4" style="stroke:#2E8B57;stroke-width:1.0;"/></g><!--link products to invoiceitems--><g id="link_products_invoiceitems"><path codeLine="62" d="M423,394.743 C423,394.743 423,454.737 423,454.737 " fill="none" id="products-invoiceitems" style="stroke:#2E8B57;stroke-width:1.0;"/><line style="stroke:#2E8B57;stroke-width:1.0;" x1="419" x2="427" y1="390.743" y2="390.743"/><line style="stroke:#2E8B57;stroke-width:1.0;" x1="419" x2="427" y1="393.743" y2="393.743"/><line style="stroke:#2E8B57;stroke-width:1.0;" x1="423" x2="423" y1="394.743" y2="386.743"/><line style="stroke:#2E8B57;stroke-width:1.0;" x1="423" x2="429" y1="454.737" y2="462.737"/><line style="stroke:#2E8B57;stroke-width:1.0;" x1="423" x2="417" y1="454.737" y2="462.737"/><line style="stroke:#2E8B57;stroke-width:1.0;" x1="423" x2="423" y1="454.737" y2="462.737"/><ellipse cx="423" cy="448.737" fill="none" rx="4" ry="4" style="stroke:#2E8B57;stroke-width:1.0;"/></g><!--link invoices to invoiceitems--><g id="link_invoices_invoiceitems"><path codeLine="63" d="M315.75,411.081 C315.75,411.081 315.75,454.741 315.75,454.741 " fill="none" id="invoices-invoiceitems" style="stroke:#2E8B57;stroke-width:1.0;"/><line style="stroke:#2E8B57;stroke-width:1.0;" x1="311.75" x2="319.75" y1="407.081" y2="407.081"/><line style="stroke:#2E8B57;stroke-width:1.0;" x1="311.75" x2="319.75" y1="410.081" y2="410.081"/><line style="stroke:#2E8B57;stroke-width:1.0;" x1="315.75" x2="315.75" y1="411.081" y2="403.081"/><line style="stroke:#2E8B57;stroke-width:1.0;" x1="315.75" x2="321.75" y1="454.741" y2="462.741"/><line style="stroke:#2E8B57;stroke-width:1.0;" x1="315.75" x2="309.75" y1="454.741" y2="462.741"/><line style="stroke:#2E8B57;stroke-width:1.0;" x1="315.75" x2="315.75" y1="454.741" y2="462.741"/><ellipse cx="315.75" cy="448.741" fill="none" rx="4" ry="4" style="stroke:#2E8B57;stroke-width:1.0;"/></g><!--SRC=[lLHHRzem47xFhxXcqWHIgsuFsqELHg9jsaLReM91cwP9auaFi4Zip7PAAUM_ptP2o4eqYPU51-Blk_jyz_cS4uepnX4qcMROGqvoF0KwjVzzGAwPNeCVJ4F71EVJy2SFPe9hKEmPBz-_WrHaGbxE9Lc7lJelEBSHeUzv9xLwiSHrxwaFcnd3Z6x120OkyUA6oEMTo2ZoiQ1XyDO4Xi6vuq9uiXis8hFN8fN2cu5x3dARF0EKEU_AZ6xjpsJcI1avavWAITiIte9H1ALHej3h0bK5vAWNWjQBbCaqGy_JeW0jO2gq5ZbGPjGq4zppr9BnWaYIWnGbfsOFZX8-jF3Cb6dbGKWZt2BKWb2nOdmECv8fR34BmkbACgsHrroBJ3EY56myCCyLIPTpj_6rxGfM2wRHCGCfnQe25PAvHEHLXZ41vIjYwvaEtOp0TQbCXoZLAQIxL-W3KQsbtTiTUeCn2lqBc4pY6p1SVIPWvyNYIVGzQUEO4vPr4SL2yCuCGgb4qtKNPGxYqILTZKPVei6mJQOIYKRwYsYN6jz7NvF1_GDyYvDFeqdY4FWn6aQzZ_rsNbdG8_AsZNinVnGiHMCUgzygxvhLtheQwdQk8YalywcPfewkbIQwxFI3bcXhFwxV_-CJLBUycPfuttiGt7uEmqCdOutvtarcLtyvMY67hXguszdV9Qc-UuQBXqbq5uttXHLIq3BLXtNj0chvVnN-K6cOeckrkk1cjI-sXewxF1HLAbbXlpv7NuT2ck8jDvpSH-Fusesktrni7rvUpix41lpTlFgUlwlxW7JMcu0cjZlW3m00]--></g></svg>