<?xml version="1.0" encoding="us-ascii" standalone="no"?><svg xmlns="http://www.w3.org/2000/svg" xmlns:xlink="http://www.w3.org/1999/xlink" contentStyleType="text/css" height="410px" preserveAspectRatio="none" style="width:1114px;height:410px;background:#FFFFFF;" version="1.1" viewBox="0 0 1114 410" width="1114px" zoomAndPan="magnify"><defs/><g><!--cluster invoice--><g id="cluster_invoice"><path d="M400.5,43 L458.5,43 A3.75,3.75 0 0 1 461,45.5 L468,65.2969 L713.5,65.2969 A2.5,2.5 0 0 1 716,67.7969 L716,125.5 A2.5,2.5 0 0 1 713.5,128 L400.5,128 A2.5,2.5 0 0 1 398,125.5 L398,45.5 A2.5,2.5 0 0 1 400.5,43 " fill="none" style="stroke:#000000;stroke-width:1.5;"/><line style="stroke:#000000;stroke-width:1.5;" x1="398" x2="468" y1="65.2969" y2="65.2969"/><text fill="#000000" font-family="sans-serif" font-size="14" font-weight="bold" lengthAdjust="spacing" textLength="57" x="402" y="57.9951">invoice</text></g><!--class customers--><g id="elem_customers"><rect fill="#FFFFFF" height="34.2969" id="customers" rx="2.5" ry="2.5" style="stroke:#2E8B57;stroke-width:0.5;" width="81" x="414.5" y="78"/><text fill="#000000" font-family="sans-serif" font-size="14" lengthAdjust="spacing" textLength="75" x="417.5" y="95.9951">customers</text><line style="stroke:#2E8B57;stroke-width:0.5;" x1="415.5" x2="494.5" y1="104.2969" y2="104.2969"/></g><!--class products--><g id="elem_products"><rect fill="#FFFFFF" height="34.2969" id="products" rx="2.5" ry="2.5" style="stroke:#2E8B57;stroke-width:0.5;" width="70" x="531" y="78"/><text fill="#000000" font-family="sans-serif" font-size="14" lengthAdjust="spacing" textLength="64" x="534" y="95.9951">products</text><line style="stroke:#2E8B57;stroke-width:0.5;" x1="532" x2="600" y1="104.2969" y2="104.2969"/></g><!--class invoices--><g id="elem_invoices"><rect fill="#FFFFFF" height="34.2969" id="invoices" rx="2.5" ry="2.5" style="stroke:#2E8B57;stroke-width:0.5;" width="64" x="636" y="78"/><text fill="#000000" font-family="sans-serif" font-size="14" lengthAdjust="spacing" textLength="58" x="639" y="95.9951">invoices</text><line style="stroke:#2E8B57;stroke-width:0.5;" x1="637" x2="699" y1="104.2969" y2="104.2969"/></g><!--class customers--><g id="elem_customers"><rect codeLine="25" fill="#FFFFFF" height="176.3125" id="customers" rx="2.5" ry="2.5" style="stroke:#2E8B57;stroke-width:0.5;" width="372.3333" x="7" y="7"/><text fill="#000000" font-family="sans-serif" font-size="14" font-weight="bold" lengthAdjust="spacing" textLength="87" x="149.6667" y="24.9951">Customers</text><text fill="#808080" font-family="sans-serif" font-size="10" lengthAdjust="spacing" textLength="64" x="161.1667" y="37.5791">(customers)</text><line style="stroke:#2E8B57;stroke-width:0.5;" x1="8" x2="378.3333" y1="44.9375" y2="44.9375"/><path d="M20.4167,52.401 C18.8067,52.401 17.5,53.7077 17.5,55.3177 C17.5,55.5044 17.5,55.691 17.535,55.866 L14,59.401 L14,61.7344 L17.5,61.7344 L17.5,59.401 L19.8333,59.401 L19.8333,58.2344 L19.8683,58.1994 C20.0433,58.2344 20.23,58.2344 20.4167,58.2344 C22.0267,58.2344 23.3333,56.9277 23.3333,55.3177 C23.3333,53.7077 22.0267,52.401 20.4167,52.401 M21,53.5677 C21.6417,53.5677 22.1667,54.0927 22.1667,54.7344 C22.1667,55.376 21.6417,55.901 21,55.901 C20.3583,55.901 19.8333,55.376 19.8333,54.7344 C19.8333,54.0927 20.3583,53.5677 21,53.5677 " fill="#B8860B" style="stroke:;stroke-width:0.0;stroke-dasharray:;"/><text fill="#000000" font-family="sans-serif" font-size="14" font-weight="bold" lengthAdjust="spacing" textLength="92" x="29.3333" y="61.9326">customerid</text><text fill="#000000" font-family="sans-serif" font-size="14" lengthAdjust="spacing" textLength="42" x="121.3333" y="61.9326">: UUID</text><path d="M17.5,68.6979 C15.5633,68.6979 14,70.2612 14,72.1979 C14,74.1346 15.5633,75.6979 17.5,75.6979 C19.4367,75.6979 21,74.1346 21,72.1979 C21,70.2612 19.4367,68.6979 17.5,68.6979 " fill="#EFEFEF" style="stroke:;stroke-width:0.0;stroke-dasharray:;"/><text fill="#000000" font-family="sans-serif" font-size="14" lengthAdjust="spacing" textLength="86" x="28.3333" y="78.2295">name: TEXT</text><path d="M17.5,84.9948 C15.5633,84.9948 14,86.5581 14,88.4948 C14,90.4315 15.5633,91.9948 17.5,91.9948 C19.4367,91.9948 21,90.4315 21,88.4948 C21,86.5581 19.4367,84.9948 17.5,84.9948 " fill="#EFEFEF" style="stroke:;stroke-width:0.0;stroke-dasharray:;"/><text fill="#000000" font-family="sans-serif" font-size="14" lengthAdjust="spacing" textLength="85" x="28.3333" y="94.5264">email: TEXT</text><path d="M17.5,101.2917 C15.5633,101.2917 14,102.855 14,104.7917 C14,106.7283 15.5633,108.2917 17.5,108.2917 C19.4367,108.2917 21,106.7283 21,104.7917 C21,102.855 19.4367,101.2917 17.5,101.2917 " fill="#EFEFEF" style="stroke:;stroke-width:0.0;stroke-dasharray:;"/><text fill="#000000" font-family="sans-serif" font-size="14" lengthAdjust="spacing" textLength="92" x="28.3333" y="110.8232">phone: TEXT</text><path d="M17.5,117.5885 C15.5633,117.5885 14,119.1519 14,121.0885 C14,123.0252 15.5633,124.5885 17.5,124.5885 C19.4367,124.5885 21,123.0252 21,121.0885 C21,119.1519 19.4367,117.5885 17.5,117.5885 " fill="#EFEFEF" style="stroke:;stroke-width:0.0;stroke-dasharray:;"/><text fill="#000000" font-family="sans-serif" font-size="14" lengthAdjust="spacing" textLength="101" x="28.3333" y="127.1201">address: TEXT</text><path d="M17.5,133.8854 C15.5633,133.8854 14,135.4488 14,137.3854 C14,139.3221 15.5633,140.8854 17.5,140.8854 C19.4367,140.8854 21,139.3221 21,137.3854 C21,135.4488 19.4367,133.8854 17.5,133.8854 " fill="#EFEFEF" style="stroke:;stroke-width:0.0;stroke-dasharray:;"/><text fill="#000000" font-family="sans-serif" font-size="14" lengthAdjust="spacing" textLength="122" x="28.3333" y="143.417">active: BOOLEAN</text><path d="M17.5,150.1823 C15.5633,150.1823 14,151.7456 14,153.6823 C14,155.619 15.5633,157.1823 17.5,157.1823 C19.4367,157.1823 21,155.619 21,153.6823 C21,151.7456 19.4367,150.1823 17.5,150.1823 " fill="#EFEFEF" style="stroke:;stroke-width:0.0;stroke-dasharray:;"/><text fill="#000000" font-family="sans-serif" font-size="14" lengthAdjust="spacing" textLength="341" x="28.3333" y="159.7139">created_at: TIMESTAMP WITHOUT TIME ZONE(6)</text><path d="M17.5,166.4792 C15.5633,166.4792 14,168.0425 14,169.9792 C14,171.9158 15.5633,173.4792 17.5,173.4792 C19.4367,173.4792 21,171.9158 21,169.9792 C21,168.0425 19.4367,166.4792 17.5,166.4792 " fill="#EFEFEF" style="stroke:;stroke-width:0.0;stroke-dasharray:;"/><text fill="#000000" font-family="sans-serif" font-size="14" lengthAdjust="spacing" textLength="345" x="28.3333" y="176.0107">updated_at: TIMESTAMP WITHOUT TIME ZONE(6)</text></g><!--class invoices--><g id="elem_invoices"><rect codeLine="36" fill="#FFFFFF" height="160.0156" id="invoices" rx="2.5" ry="2.5" style="stroke:#2E8B57;stroke-width:0.5;" width="372.3333" x="171" y="243"/><text fill="#000000" font-family="sans-serif" font-size="14" font-weight="bold" lengthAdjust="spacing" textLength="66" x="324.1667" y="260.9951">Invoices</text><text fill="#808080" font-family="sans-serif" font-size="10" lengthAdjust="spacing" textLength="52" x="331.1667" y="273.5791">(invoices)</text><line style="stroke:#2E8B57;stroke-width:0.5;" x1="172" x2="542.3333" y1="280.9375" y2="280.9375"/><path d="M184.4167,288.401 C182.8067,288.401 181.5,289.7077 181.5,291.3177 C181.5,291.5044 181.5,291.691 181.535,291.866 L178,295.401 L178,297.7344 L181.5,297.7344 L181.5,295.401 L183.8333,295.401 L183.8333,294.2344 L183.8683,294.1994 C184.0433,294.2344 184.23,294.2344 184.4167,294.2344 C186.0267,294.2344 187.3333,292.9277 187.3333,291.3177 C187.3333,289.7077 186.0267,288.401 184.4167,288.401 M185,289.5677 C185.6417,289.5677 186.1667,290.0927 186.1667,290.7344 C186.1667,291.376 185.6417,291.901 185,291.901 C184.3583,291.901 183.8333,291.376 183.8333,290.7344 C183.8333,290.0927 184.3583,289.5677 185,289.5677 " fill="#B8860B" style="stroke:;stroke-width:0.0;stroke-dasharray:;"/><text fill="#000000" font-family="sans-serif" font-size="14" font-weight="bold" lengthAdjust="spacing" textLength="72" x="193.3333" y="297.9326">invoiceid</text><text fill="#000000" font-family="sans-serif" font-size="14" lengthAdjust="spacing" textLength="42" x="265.3333" y="297.9326">: UUID</text><path d="M181.5,304.6979 C179.5633,304.6979 178,306.2613 178,308.1979 C178,310.1346 179.5633,311.6979 181.5,311.6979 C183.4367,311.6979 185,310.1346 185,308.1979 C185,306.2613 183.4367,304.6979 181.5,304.6979 " fill="#EFEFEF" style="stroke:;stroke-width:0.0;stroke-dasharray:;"/><text fill="#000000" font-family="sans-serif" font-size="14" lengthAdjust="spacing" textLength="153" x="192.3333" y="314.2295">invoicdnumber: TEXT</text><path d="M181.5,320.9948 C179.5633,320.9948 178,322.5581 178,324.4948 C178,326.4315 179.5633,327.9948 181.5,327.9948 C183.4367,327.9948 185,326.4315 185,324.4948 C185,322.5581 183.4367,320.9948 181.5,320.9948 " fill="#EFEFEF" style="stroke:;stroke-width:0.0;stroke-dasharray:;"/><text fill="#000000" font-family="sans-serif" font-size="14" lengthAdjust="spacing" textLength="90" x="192.3333" y="330.5264">status: TEXT</text><path d="M181.5,337.2917 C179.5633,337.2917 178,338.855 178,340.7917 C178,342.7283 179.5633,344.2917 181.5,344.2917 C183.4367,344.2917 185,342.7283 185,340.7917 C185,338.855 183.4367,337.2917 181.5,337.2917 " fill="#EFEFEF" style="stroke:;stroke-width:0.0;stroke-dasharray:;"/><text fill="#000000" font-family="sans-serif" font-size="14" lengthAdjust="spacing" textLength="322" x="192.3333" y="346.8232">duedate: TIMESTAMP WITHOUT TIME ZONE(6)</text><path d="M181.5,353.5885 C179.5633,353.5885 178,355.1519 178,357.0885 C178,359.0252 179.5633,360.5885 181.5,360.5885 C183.4367,360.5885 185,359.0252 185,357.0885 C185,355.1519 183.4367,353.5885 181.5,353.5885 " fill="#EFEFEF" style="stroke:;stroke-width:0.0;stroke-dasharray:;"/><text fill="#000000" font-family="sans-serif" font-size="14" lengthAdjust="spacing" textLength="341" x="192.3333" y="363.1201">created_at: TIMESTAMP WITHOUT TIME ZONE(6)</text><path d="M181.5,369.8854 C179.5633,369.8854 178,371.4488 178,373.3854 C178,375.3221 179.5633,376.8854 181.5,376.8854 C183.4367,376.8854 185,375.3221 185,373.3854 C185,371.4488 183.4367,369.8854 181.5,369.8854 " fill="#EFEFEF" style="stroke:;stroke-width:0.0;stroke-dasharray:;"/><text fill="#000000" font-family="sans-serif" font-size="14" lengthAdjust="spacing" textLength="345" x="192.3333" y="379.417">updated_at: TIMESTAMP WITHOUT TIME ZONE(6)</text><path d="M184.4167,386.1823 C182.8067,386.1823 181.5,387.489 181.5,389.099 C181.5,389.2856 181.5,389.4723 181.535,389.6473 L178,393.1823 L178,395.5156 L181.5,395.5156 L181.5,393.1823 L183.8333,393.1823 L183.8333,392.0156 L183.8683,391.9806 C184.0433,392.0156 184.23,392.0156 184.4167,392.0156 C186.0267,392.0156 187.3333,390.709 187.3333,389.099 C187.3333,387.489 186.0267,386.1823 184.4167,386.1823 M185,387.349 C185.6417,387.349 186.1667,387.874 186.1667,388.5156 C186.1667,389.1573 185.6417,389.6823 185,389.6823 C184.3583,389.6823 183.8333,389.1573 183.8333,388.5156 C183.8333,387.874 184.3583,387.349 185,387.349 " fill="#AAAAAA" style="stroke:;stroke-width:0.0;stroke-dasharray:;"/><text fill="#000000" font-family="sans-serif" font-size="14" lengthAdjust="spacing" textLength="161" x="192.3333" y="395.7139">customerId: UUID &#171;FK&#187;</text></g><!--class products--><g id="elem_products"><rect codeLine="46" fill="#FFFFFF" height="176.3125" id="products" rx="2.5" ry="2.5" style="stroke:#2E8B57;stroke-width:0.5;" width="372.3333" x="735" y="7"/><text fill="#000000" font-family="sans-serif" font-size="14" font-weight="bold" lengthAdjust="spacing" textLength="73" x="884.6667" y="24.9951">Products</text><text fill="#808080" font-family="sans-serif" font-size="10" lengthAdjust="spacing" textLength="55" x="893.6667" y="37.5791">(products)</text><line style="stroke:#2E8B57;stroke-width:0.5;" x1="736" x2="1106.3333" y1="44.9375" y2="44.9375"/><path d="M748.4167,52.401 C746.8067,52.401 745.5,53.7077 745.5,55.3177 C745.5,55.5044 745.5,55.691 745.535,55.866 L742,59.401 L742,61.7344 L745.5,61.7344 L745.5,59.401 L747.8333,59.401 L747.8333,58.2344 L747.8683,58.1994 C748.0433,58.2344 748.23,58.2344 748.4167,58.2344 C750.0267,58.2344 751.3333,56.9277 751.3333,55.3177 C751.3333,53.7077 750.0267,52.401 748.4167,52.401 M749,53.5677 C749.6417,53.5677 750.1667,54.0927 750.1667,54.7344 C750.1667,55.376 749.6417,55.901 749,55.901 C748.3583,55.901 747.8333,55.376 747.8333,54.7344 C747.8333,54.0927 748.3583,53.5677 749,53.5677 " fill="#B8860B" style="stroke:;stroke-width:0.0;stroke-dasharray:;"/><text fill="#000000" font-family="sans-serif" font-size="14" font-weight="bold" lengthAdjust="spacing" textLength="79" x="757.3333" y="61.9326">productid</text><text fill="#000000" font-family="sans-serif" font-size="14" lengthAdjust="spacing" textLength="42" x="836.3333" y="61.9326">: UUID</text><path d="M745.5,68.6979 C743.5633,68.6979 742,70.2612 742,72.1979 C742,74.1346 743.5633,75.6979 745.5,75.6979 C747.4367,75.6979 749,74.1346 749,72.1979 C749,70.2612 747.4367,68.6979 745.5,68.6979 " fill="#EFEFEF" style="stroke:;stroke-width:0.0;stroke-dasharray:;"/><text fill="#000000" font-family="sans-serif" font-size="14" lengthAdjust="spacing" textLength="145" x="756.3333" y="78.2295">product_code: TEXT</text><path d="M745.5,84.9948 C743.5633,84.9948 742,86.5581 742,88.4948 C742,90.4315 743.5633,91.9948 745.5,91.9948 C747.4367,91.9948 749,90.4315 749,88.4948 C749,86.5581 747.4367,84.9948 745.5,84.9948 " fill="#EFEFEF" style="stroke:;stroke-width:0.0;stroke-dasharray:;"/><text fill="#000000" font-family="sans-serif" font-size="14" lengthAdjust="spacing" textLength="86" x="756.3333" y="94.5264">name: TEXT</text><path d="M745.5,101.2917 C743.5633,101.2917 742,102.855 742,104.7917 C742,106.7283 743.5633,108.2917 745.5,108.2917 C747.4367,108.2917 749,106.7283 749,104.7917 C749,102.855 747.4367,101.2917 745.5,101.2917 " fill="#EFEFEF" style="stroke:;stroke-width:0.0;stroke-dasharray:;"/><text fill="#000000" font-family="sans-serif" font-size="14" lengthAdjust="spacing" textLength="128" x="756.3333" y="110.8232">description: TEXT</text><path d="M745.5,117.5885 C743.5633,117.5885 742,119.1519 742,121.0885 C742,123.0252 743.5633,124.5885 745.5,124.5885 C747.4367,124.5885 749,123.0252 749,121.0885 C749,119.1519 747.4367,117.5885 745.5,117.5885 " fill="#EFEFEF" style="stroke:;stroke-width:0.0;stroke-dasharray:;"/><text fill="#000000" font-family="sans-serif" font-size="14" lengthAdjust="spacing" textLength="122" x="756.3333" y="127.1201">active: BOOLEAN</text><path d="M745.5,133.8854 C743.5633,133.8854 742,135.4488 742,137.3854 C742,139.3221 743.5633,140.8854 745.5,140.8854 C747.4367,140.8854 749,139.3221 749,137.3854 C749,135.4488 747.4367,133.8854 745.5,133.8854 " fill="#EFEFEF" style="stroke:;stroke-width:0.0;stroke-dasharray:;"/><text fill="#000000" font-family="sans-serif" font-size="14" lengthAdjust="spacing" textLength="110" x="756.3333" y="143.417">price: NUMERIC</text><path d="M745.5,150.1823 C743.5633,150.1823 742,151.7456 742,153.6823 C742,155.619 743.5633,157.1823 745.5,157.1823 C747.4367,157.1823 749,155.619 749,153.6823 C749,151.7456 747.4367,150.1823 745.5,150.1823 " fill="#EFEFEF" style="stroke:;stroke-width:0.0;stroke-dasharray:;"/><text fill="#000000" font-family="sans-serif" font-size="14" lengthAdjust="spacing" textLength="341" x="756.3333" y="159.7139">created_at: TIMESTAMP WITHOUT TIME ZONE(6)</text><path d="M745.5,166.4792 C743.5633,166.4792 742,168.0425 742,169.9792 C742,171.9158 743.5633,173.4792 745.5,173.4792 C747.4367,173.4792 749,171.9158 749,169.9792 C749,168.0425 747.4367,166.4792 745.5,166.4792 " fill="#EFEFEF" style="stroke:;stroke-width:0.0;stroke-dasharray:;"/><text fill="#000000" font-family="sans-serif" font-size="14" lengthAdjust="spacing" textLength="345" x="756.3333" y="176.0107">updated_at: TIMESTAMP WITHOUT TIME ZONE(6)</text></g><!--class invoiceitems--><g id="elem_invoiceitems"><rect codeLine="57" fill="#FFFFFF" height="111.125" id="invoiceitems" rx="2.5" ry="2.5" style="stroke:#2E8B57;stroke-width:0.5;" width="179.3333" x="578.5" y="267.5"/><text fill="#000000" font-family="sans-serif" font-size="14" font-weight="bold" lengthAdjust="spacing" textLength="103" x="616.6667" y="285.4951">InvoiceItems</text><text fill="#808080" font-family="sans-serif" font-size="10" lengthAdjust="spacing" textLength="77" x="629.6667" y="298.0791">(invoiceitems)</text><line style="stroke:#2E8B57;stroke-width:0.5;" x1="579.5" x2="756.8333" y1="305.4375" y2="305.4375"/><path d="M591.9167,312.901 C590.3067,312.901 589,314.2077 589,315.8177 C589,316.0044 589,316.191 589.035,316.366 L585.5,319.901 L585.5,322.2344 L589,322.2344 L589,319.901 L591.3333,319.901 L591.3333,318.7344 L591.3683,318.6994 C591.5433,318.7344 591.73,318.7344 591.9167,318.7344 C593.5267,318.7344 594.8333,317.4277 594.8333,315.8177 C594.8333,314.2077 593.5267,312.901 591.9167,312.901 M592.5,314.0677 C593.1417,314.0677 593.6667,314.5927 593.6667,315.2344 C593.6667,315.876 593.1417,316.401 592.5,316.401 C591.8583,316.401 591.3333,315.876 591.3333,315.2344 C591.3333,314.5927 591.8583,314.0677 592.5,314.0677 " fill="#B8860B" style="stroke:;stroke-width:0.0;stroke-dasharray:;"/><text fill="#000000" font-family="sans-serif" font-size="14" font-weight="bold" lengthAdjust="spacing" textLength="109" x="600.8333" y="322.4326">invoiceitemid</text><text fill="#000000" font-family="sans-serif" font-size="14" lengthAdjust="spacing" textLength="42" x="709.8333" y="322.4326">: UUID</text><path d="M589,329.1979 C587.0633,329.1979 585.5,330.7613 585.5,332.6979 C585.5,334.6346 587.0633,336.1979 589,336.1979 C590.9367,336.1979 592.5,334.6346 592.5,332.6979 C592.5,330.7613 590.9367,329.1979 589,329.1979 " fill="#EFEFEF" style="stroke:;stroke-width:0.0;stroke-dasharray:;"/><text fill="#000000" font-family="sans-serif" font-size="14" lengthAdjust="spacing" textLength="131" x="599.8333" y="338.7295">quantity: INTEGER</text><path d="M591.9167,345.4948 C590.3067,345.4948 589,346.8015 589,348.4115 C589,348.5981 589,348.7848 589.035,348.9598 L585.5,352.4948 L585.5,354.8281 L589,354.8281 L589,352.4948 L591.3333,352.4948 L591.3333,351.3281 L591.3683,351.2931 C591.5433,351.3281 591.73,351.3281 591.9167,351.3281 C593.5267,351.3281 594.8333,350.0215 594.8333,348.4115 C594.8333,346.8015 593.5267,345.4948 591.9167,345.4948 M592.5,346.6615 C593.1417,346.6615 593.6667,347.1865 593.6667,347.8281 C593.6667,348.4698 593.1417,348.9948 592.5,348.9948 C591.8583,348.9948 591.3333,348.4698 591.3333,347.8281 C591.3333,347.1865 591.8583,346.6615 592.5,346.6615 " fill="#AAAAAA" style="stroke:;stroke-width:0.0;stroke-dasharray:;"/><text fill="#000000" font-family="sans-serif" font-size="14" lengthAdjust="spacing" textLength="150" x="599.8333" y="355.0264">productId: UUID &#171;FK&#187;</text><path d="M591.9167,361.7917 C590.3067,361.7917 589,363.0983 589,364.7083 C589,364.895 589,365.0817 589.035,365.2567 L585.5,368.7917 L585.5,371.125 L589,371.125 L589,368.7917 L591.3333,368.7917 L591.3333,367.625 L591.3683,367.59 C591.5433,367.625 591.73,367.625 591.9167,367.625 C593.5267,367.625 594.8333,366.3183 594.8333,364.7083 C594.8333,363.0983 593.5267,361.7917 591.9167,361.7917 M592.5,362.9583 C593.1417,362.9583 593.6667,363.4833 593.6667,364.125 C593.6667,364.7667 593.1417,365.2917 592.5,365.2917 C591.8583,365.2917 591.3333,364.7667 591.3333,364.125 C591.3333,363.4833 591.8583,362.9583 592.5,362.9583 " fill="#AAAAAA" style="stroke:;stroke-width:0.0;stroke-dasharray:;"/><text fill="#000000" font-family="sans-serif" font-size="14" lengthAdjust="spacing" textLength="144" x="599.8333" y="371.3232">invoiceId: UUID &#171;FK&#187;</text></g><!--link customers to invoices--><g id="link_customers_invoices"><path codeLine="64" d="M455,120.137 C455,120.137 455,234.821 455,234.821 " fill="none" id="customers-invoices" style="stroke:#2E8B57;stroke-width:1.0;"/><line style="stroke:#2E8B57;stroke-width:1.0;" x1="451" x2="459" y1="116.137" y2="116.137"/><line style="stroke:#2E8B57;stroke-width:1.0;" x1="451" x2="459" y1="119.137" y2="119.137"/><line style="stroke:#2E8B57;stroke-width:1.0;" x1="455" x2="455" y1="120.137" y2="112.137"/><line style="stroke:#2E8B57;stroke-width:1.0;" x1="455" x2="461" y1="234.821" y2="242.821"/><line style="stroke:#2E8B57;stroke-width:1.0;" x1="455" x2="449" y1="234.821" y2="242.821"/><line style="stroke:#2E8B57;stroke-width:1.0;" x1="455" x2="455" y1="234.821" y2="242.821"/><ellipse cx="455" cy="228.821" fill="none" rx="4" ry="4" style="stroke:#2E8B57;stroke-width:1.0;"/></g><!--link products to invoiceitems--><g id="link_products_invoiceitems"><path codeLine="65" d="M589.75,120.137 C589.75,120.137 589.75,259.375 589.75,259.375 " fill="none" id="products-invoiceitems" style="stroke:#2E8B57;stroke-width:1.0;"/><line style="stroke:#2E8B57;stroke-width:1.0;" x1="585.75" x2="593.75" y1="116.137" y2="116.137"/><line style="stroke:#2E8B57;stroke-width:1.0;" x1="585.75" x2="593.75" y1="119.137" y2="119.137"/><line style="stroke:#2E8B57;stroke-width:1.0;" x1="589.75" x2="589.75" y1="120.137" y2="112.137"/><line style="stroke:#2E8B57;stroke-width:1.0;" x1="589.75" x2="595.75" y1="259.375" y2="267.375"/><line style="stroke:#2E8B57;stroke-width:1.0;" x1="589.75" x2="583.75" y1="259.375" y2="267.375"/><line style="stroke:#2E8B57;stroke-width:1.0;" x1="589.75" x2="589.75" y1="259.375" y2="267.375"/><ellipse cx="589.75" cy="253.375" fill="none" rx="4" ry="4" style="stroke:#2E8B57;stroke-width:1.0;"/></g><!--link invoices to invoiceitems--><g id="link_invoices_invoiceitems"><path codeLine="66" d="M668,120.137 C668,120.137 668,259.375 668,259.375 " fill="none" id="invoices-invoiceitems" style="stroke:#2E8B57;stroke-width:1.0;"/><line style="stroke:#2E8B57;stroke-width:1.0;" x1="664" x2="672" y1="116.137" y2="116.137"/><line style="stroke:#2E8B57;stroke-width:1.0;" x1="664" x2="672" y1="119.137" y2="119.137"/><line style="stroke:#2E8B57;stroke-width:1.0;" x1="668" x2="668" y1="120.137" y2="112.137"/><line style="stroke:#2E8B57;stroke-width:1.0;" x1="668" x2="674" y1="259.375" y2="267.375"/><line style="stroke:#2E8B57;stroke-width:1.0;" x1="668" x2="662" y1="259.375" y2="267.375"/><line style="stroke:#2E8B57;stroke-width:1.0;" x1="668" x2="668" y1="259.375" y2="267.375"/><ellipse cx="668" cy="253.375" fill="none" rx="4" ry="4" style="stroke:#2E8B57;stroke-width:1.0;"/></g><!--SRC=[pLNHRjem57tFLzmoQGAfZErXUwZII9IcNRG15GDjcYPL9hw0HM9djbFAAFy-Ep4XAzb3NwQ51-9pxhdEFJw1CueBnX4qcIVOHavIF0SwjzyTGAwPtaBBdmS5u_VcmG_kBmJNeDWll7pt5cAH27cvb6GRj9tExzcAeELvPwvxjiPj-x43kmN3XEx1DFGBuSKraUjRaL3a4q43_xKf3FnUmGNmQ3UicYoUDoaxlEeNrucsqXaWJtcJChon7wDCaJBIbHWBIUijl1MZ24gZHA6t6QeII56l17MBcCauGS_J8WCjO2wq5YbGPhff9hZdgJNZ6P4a1IboJiqU72Myh-69UKpR7eGqZMk4MX4gDemlOK4IXJLcHJZTIAOrSiVLo3WXIi7E0tDTaNYzB3OUsAbWis8Q2wOlfTYKe4Aob8YyL1WJK3uZzfwPiCW8379b9aIfpY4-t487YAejxTx5eLSOez2vWDaikWR3kJC1cnUBJyDlqpgEAM594v6j16zK44ebcgcRA7CG3uNeQZp-7FP7TJAMI3JIUw8BQJGClqpxmplu6aq_ZcVJ0e7lur7O_j2fw_ACla2thzoB-8DWCHhpcBihlQjMH-iSrEnSILAUftEJfeQfbIOwR_I3vcYV_MNp_XkVe7pBgzH4nzbz_-PJ4DISl9E2vh4sJcRkhdIoMXsTT52pauwyZmLjJDRVCafHnP9bzYL_SUeoQGxMSgFPC9n4W_yWaP76z9XAPbT_9BD4JjDfu6PVV-Qa_FymN3IQXhVXv7Z0plJJypqKkFQD0MWvyatrWzE2fwTkL-pWGAdMiUeGY9EYOgHQOQLjBlmD]--></g></svg>