<?xml version="1.0" encoding="us-ascii" standalone="no"?><svg xmlns="http://www.w3.org/2000/svg" xmlns:xlink="http://www.w3.org/1999/xlink" contentStyleType="text/css" height="410px" preserveAspectRatio="none" style="width:1171px;height:410px;background:#FFFFFF;" version="1.1" viewBox="0 0 1171 410" width="1171px" zoomAndPan="magnify"><defs/><g><!--cluster invoice--><g id="cluster_invoice"><path d="M51,43 L109,43 A3.75,3.75 0 0 1 111.5,45.5 L118.5,65.2969 L364,65.2969 A2.5,2.5 0 0 1 366.5,67.7969 L366.5,125.5 A2.5,2.5 0 0 1 364,128 L51,128 A2.5,2.5 0 0 1 48.5,125.5 L48.5,45.5 A2.5,2.5 0 0 1 51,43 " fill="none" style="stroke:#000000;stroke-width:1.5;"/><line style="stroke:#000000;stroke-width:1.5;" x1="48.5" x2="118.5" y1="65.2969" y2="65.2969"/><text fill="#000000" font-family="sans-serif" font-size="14" font-weight="bold" lengthAdjust="spacing" textLength="57" x="52.5" y="57.9951">invoice</text></g><!--class products--><g id="elem_products"><rect fill="#FFFFFF" height="34.2969" id="products" rx="2.5" ry="2.5" style="stroke:#2E8B57;stroke-width:0.5;" width="70" x="163.5" y="78"/><text fill="#000000" font-family="sans-serif" font-size="14" lengthAdjust="spacing" textLength="64" x="166.5" y="95.9951">products</text><line style="stroke:#2E8B57;stroke-width:0.5;" x1="164.5" x2="232.5" y1="104.2969" y2="104.2969"/></g><!--class invoices--><g id="elem_invoices"><rect fill="#FFFFFF" height="34.2969" id="invoices" rx="2.5" ry="2.5" style="stroke:#2E8B57;stroke-width:0.5;" width="64" x="64.5" y="78"/><text fill="#000000" font-family="sans-serif" font-size="14" lengthAdjust="spacing" textLength="58" x="67.5" y="95.9951">invoices</text><line style="stroke:#2E8B57;stroke-width:0.5;" x1="65.5" x2="127.5" y1="104.2969" y2="104.2969"/></g><!--class customers--><g id="elem_customers"><rect fill="#FFFFFF" height="34.2969" id="customers" rx="2.5" ry="2.5" style="stroke:#2E8B57;stroke-width:0.5;" width="81" x="269" y="78"/><text fill="#000000" font-family="sans-serif" font-size="14" lengthAdjust="spacing" textLength="75" x="272" y="95.9951">customers</text><line style="stroke:#2E8B57;stroke-width:0.5;" x1="270" x2="349" y1="104.2969" y2="104.2969"/></g><!--class invoiceitems--><g id="elem_invoiceitems"><rect codeLine="25" fill="#FFFFFF" height="111.125" id="invoiceitems" rx="2.5" ry="2.5" style="stroke:#2E8B57;stroke-width:0.5;" width="179.3333" x="7" y="267.5"/><text fill="#000000" font-family="sans-serif" font-size="14" font-weight="bold" lengthAdjust="spacing" textLength="103" x="45.1667" y="285.4951">InvoiceItems</text><text fill="#808080" font-family="sans-serif" font-size="10" lengthAdjust="spacing" textLength="77" x="58.1667" y="298.0791">(invoiceitems)</text><line style="stroke:#2E8B57;stroke-width:0.5;" x1="8" x2="185.3333" y1="305.4375" y2="305.4375"/><path d="M20.4167,312.901 C18.8067,312.901 17.5,314.2077 17.5,315.8177 C17.5,316.0044 17.5,316.191 17.535,316.366 L14,319.901 L14,322.2344 L17.5,322.2344 L17.5,319.901 L19.8333,319.901 L19.8333,318.7344 L19.8683,318.6994 C20.0433,318.7344 20.23,318.7344 20.4167,318.7344 C22.0267,318.7344 23.3333,317.4277 23.3333,315.8177 C23.3333,314.2077 22.0267,312.901 20.4167,312.901 M21,314.0677 C21.6417,314.0677 22.1667,314.5927 22.1667,315.2344 C22.1667,315.876 21.6417,316.401 21,316.401 C20.3583,316.401 19.8333,315.876 19.8333,315.2344 C19.8333,314.5927 20.3583,314.0677 21,314.0677 " fill="#B8860B" style="stroke:;stroke-width:0.0;stroke-dasharray:;"/><text fill="#000000" font-family="sans-serif" font-size="14" font-weight="bold" lengthAdjust="spacing" textLength="109" x="29.3333" y="322.4326">invoiceitemid</text><text fill="#000000" font-family="sans-serif" font-size="14" lengthAdjust="spacing" textLength="42" x="138.3333" y="322.4326">: UUID</text><path d="M17.5,329.1979 C15.5633,329.1979 14,330.7613 14,332.6979 C14,334.6346 15.5633,336.1979 17.5,336.1979 C19.4367,336.1979 21,334.6346 21,332.6979 C21,330.7613 19.4367,329.1979 17.5,329.1979 " fill="#EFEFEF" style="stroke:;stroke-width:0.0;stroke-dasharray:;"/><text fill="#000000" font-family="sans-serif" font-size="14" lengthAdjust="spacing" textLength="131" x="28.3333" y="338.7295">quantity: INTEGER</text><path d="M20.4167,345.4948 C18.8067,345.4948 17.5,346.8015 17.5,348.4115 C17.5,348.5981 17.5,348.7848 17.535,348.9598 L14,352.4948 L14,354.8281 L17.5,354.8281 L17.5,352.4948 L19.8333,352.4948 L19.8333,351.3281 L19.8683,351.2931 C20.0433,351.3281 20.23,351.3281 20.4167,351.3281 C22.0267,351.3281 23.3333,350.0215 23.3333,348.4115 C23.3333,346.8015 22.0267,345.4948 20.4167,345.4948 M21,346.6615 C21.6417,346.6615 22.1667,347.1865 22.1667,347.8281 C22.1667,348.4698 21.6417,348.9948 21,348.9948 C20.3583,348.9948 19.8333,348.4698 19.8333,347.8281 C19.8333,347.1865 20.3583,346.6615 21,346.6615 " fill="#AAAAAA" style="stroke:;stroke-width:0.0;stroke-dasharray:;"/><text fill="#000000" font-family="sans-serif" font-size="14" lengthAdjust="spacing" textLength="150" x="28.3333" y="355.0264">productId: UUID &#171;FK&#187;</text><path d="M20.4167,361.7917 C18.8067,361.7917 17.5,363.0983 17.5,364.7083 C17.5,364.895 17.5,365.0817 17.535,365.2567 L14,368.7917 L14,371.125 L17.5,371.125 L17.5,368.7917 L19.8333,368.7917 L19.8333,367.625 L19.8683,367.59 C20.0433,367.625 20.23,367.625 20.4167,367.625 C22.0267,367.625 23.3333,366.3183 23.3333,364.7083 C23.3333,363.0983 22.0267,361.7917 20.4167,361.7917 M21,362.9583 C21.6417,362.9583 22.1667,363.4833 22.1667,364.125 C22.1667,364.7667 21.6417,365.2917 21,365.2917 C20.3583,365.2917 19.8333,364.7667 19.8333,364.125 C19.8333,363.4833 20.3583,362.9583 21,362.9583 " fill="#AAAAAA" style="stroke:;stroke-width:0.0;stroke-dasharray:;"/><text fill="#000000" font-family="sans-serif" font-size="14" lengthAdjust="spacing" textLength="144" x="28.3333" y="371.3232">invoiceId: UUID &#171;FK&#187;</text></g><!--class customers--><g id="elem_customers"><rect codeLine="32" fill="#FFFFFF" height="176.3125" id="customers" rx="2.5" ry="2.5" style="stroke:#2E8B57;stroke-width:0.5;" width="372.3333" x="385.5" y="7"/><text fill="#000000" font-family="sans-serif" font-size="14" font-weight="bold" lengthAdjust="spacing" textLength="87" x="528.1667" y="24.9951">Customers</text><text fill="#808080" font-family="sans-serif" font-size="10" lengthAdjust="spacing" textLength="64" x="539.6667" y="37.5791">(customers)</text><line style="stroke:#2E8B57;stroke-width:0.5;" x1="386.5" x2="756.8333" y1="44.9375" y2="44.9375"/><path d="M398.9167,52.401 C397.3067,52.401 396,53.7077 396,55.3177 C396,55.5044 396,55.691 396.035,55.866 L392.5,59.401 L392.5,61.7344 L396,61.7344 L396,59.401 L398.3333,59.401 L398.3333,58.2344 L398.3683,58.1994 C398.5433,58.2344 398.73,58.2344 398.9167,58.2344 C400.5267,58.2344 401.8333,56.9277 401.8333,55.3177 C401.8333,53.7077 400.5267,52.401 398.9167,52.401 M399.5,53.5677 C400.1417,53.5677 400.6667,54.0927 400.6667,54.7344 C400.6667,55.376 400.1417,55.901 399.5,55.901 C398.8583,55.901 398.3333,55.376 398.3333,54.7344 C398.3333,54.0927 398.8583,53.5677 399.5,53.5677 " fill="#B8860B" style="stroke:;stroke-width:0.0;stroke-dasharray:;"/><text fill="#000000" font-family="sans-serif" font-size="14" font-weight="bold" lengthAdjust="spacing" textLength="92" x="407.8333" y="61.9326">customerid</text><text fill="#000000" font-family="sans-serif" font-size="14" lengthAdjust="spacing" textLength="42" x="499.8333" y="61.9326">: UUID</text><path d="M396,68.6979 C394.0633,68.6979 392.5,70.2612 392.5,72.1979 C392.5,74.1346 394.0633,75.6979 396,75.6979 C397.9367,75.6979 399.5,74.1346 399.5,72.1979 C399.5,70.2612 397.9367,68.6979 396,68.6979 " fill="#EFEFEF" style="stroke:;stroke-width:0.0;stroke-dasharray:;"/><text fill="#000000" font-family="sans-serif" font-size="14" lengthAdjust="spacing" textLength="86" x="406.8333" y="78.2295">name: TEXT</text><path d="M396,84.9948 C394.0633,84.9948 392.5,86.5581 392.5,88.4948 C392.5,90.4315 394.0633,91.9948 396,91.9948 C397.9367,91.9948 399.5,90.4315 399.5,88.4948 C399.5,86.5581 397.9367,84.9948 396,84.9948 " fill="#EFEFEF" style="stroke:;stroke-width:0.0;stroke-dasharray:;"/><text fill="#000000" font-family="sans-serif" font-size="14" lengthAdjust="spacing" textLength="85" x="406.8333" y="94.5264">email: TEXT</text><path d="M396,101.2917 C394.0633,101.2917 392.5,102.855 392.5,104.7917 C392.5,106.7283 394.0633,108.2917 396,108.2917 C397.9367,108.2917 399.5,106.7283 399.5,104.7917 C399.5,102.855 397.9367,101.2917 396,101.2917 " fill="#EFEFEF" style="stroke:;stroke-width:0.0;stroke-dasharray:;"/><text fill="#000000" font-family="sans-serif" font-size="14" lengthAdjust="spacing" textLength="92" x="406.8333" y="110.8232">phone: TEXT</text><path d="M396,117.5885 C394.0633,117.5885 392.5,119.1519 392.5,121.0885 C392.5,123.0252 394.0633,124.5885 396,124.5885 C397.9367,124.5885 399.5,123.0252 399.5,121.0885 C399.5,119.1519 397.9367,117.5885 396,117.5885 " fill="#EFEFEF" style="stroke:;stroke-width:0.0;stroke-dasharray:;"/><text fill="#000000" font-family="sans-serif" font-size="14" lengthAdjust="spacing" textLength="101" x="406.8333" y="127.1201">address: TEXT</text><path d="M396,133.8854 C394.0633,133.8854 392.5,135.4488 392.5,137.3854 C392.5,139.3221 394.0633,140.8854 396,140.8854 C397.9367,140.8854 399.5,139.3221 399.5,137.3854 C399.5,135.4488 397.9367,133.8854 396,133.8854 " fill="#EFEFEF" style="stroke:;stroke-width:0.0;stroke-dasharray:;"/><text fill="#000000" font-family="sans-serif" font-size="14" lengthAdjust="spacing" textLength="122" x="406.8333" y="143.417">active: BOOLEAN</text><path d="M396,150.1823 C394.0633,150.1823 392.5,151.7456 392.5,153.6823 C392.5,155.619 394.0633,157.1823 396,157.1823 C397.9367,157.1823 399.5,155.619 399.5,153.6823 C399.5,151.7456 397.9367,150.1823 396,150.1823 " fill="#EFEFEF" style="stroke:;stroke-width:0.0;stroke-dasharray:;"/><text fill="#000000" font-family="sans-serif" font-size="14" lengthAdjust="spacing" textLength="341" x="406.8333" y="159.7139">created_at: TIMESTAMP WITHOUT TIME ZONE(6)</text><path d="M396,166.4792 C394.0633,166.4792 392.5,168.0425 392.5,169.9792 C392.5,171.9158 394.0633,173.4792 396,173.4792 C397.9367,173.4792 399.5,171.9158 399.5,169.9792 C399.5,168.0425 397.9367,166.4792 396,166.4792 " fill="#EFEFEF" style="stroke:;stroke-width:0.0;stroke-dasharray:;"/><text fill="#000000" font-family="sans-serif" font-size="14" lengthAdjust="spacing" textLength="345" x="406.8333" y="176.0107">updated_at: TIMESTAMP WITHOUT TIME ZONE(6)</text></g><!--class products--><g id="elem_products"><rect codeLine="43" fill="#FFFFFF" height="176.3125" id="products" rx="2.5" ry="2.5" style="stroke:#2E8B57;stroke-width:0.5;" width="372.3333" x="792.5" y="7"/><text fill="#000000" font-family="sans-serif" font-size="14" font-weight="bold" lengthAdjust="spacing" textLength="73" x="942.1667" y="24.9951">Products</text><text fill="#808080" font-family="sans-serif" font-size="10" lengthAdjust="spacing" textLength="55" x="951.1667" y="37.5791">(products)</text><line style="stroke:#2E8B57;stroke-width:0.5;" x1="793.5" x2="1163.8333" y1="44.9375" y2="44.9375"/><path d="M805.9167,52.401 C804.3067,52.401 803,53.7077 803,55.3177 C803,55.5044 803,55.691 803.035,55.866 L799.5,59.401 L799.5,61.7344 L803,61.7344 L803,59.401 L805.3333,59.401 L805.3333,58.2344 L805.3683,58.1994 C805.5433,58.2344 805.73,58.2344 805.9167,58.2344 C807.5267,58.2344 808.8333,56.9277 808.8333,55.3177 C808.8333,53.7077 807.5267,52.401 805.9167,52.401 M806.5,53.5677 C807.1417,53.5677 807.6667,54.0927 807.6667,54.7344 C807.6667,55.376 807.1417,55.901 806.5,55.901 C805.8583,55.901 805.3333,55.376 805.3333,54.7344 C805.3333,54.0927 805.8583,53.5677 806.5,53.5677 " fill="#B8860B" style="stroke:;stroke-width:0.0;stroke-dasharray:;"/><text fill="#000000" font-family="sans-serif" font-size="14" font-weight="bold" lengthAdjust="spacing" textLength="79" x="814.8333" y="61.9326">productid</text><text fill="#000000" font-family="sans-serif" font-size="14" lengthAdjust="spacing" textLength="42" x="893.8333" y="61.9326">: UUID</text><path d="M803,68.6979 C801.0633,68.6979 799.5,70.2612 799.5,72.1979 C799.5,74.1346 801.0633,75.6979 803,75.6979 C804.9367,75.6979 806.5,74.1346 806.5,72.1979 C806.5,70.2612 804.9367,68.6979 803,68.6979 " fill="#EFEFEF" style="stroke:;stroke-width:0.0;stroke-dasharray:;"/><text fill="#000000" font-family="sans-serif" font-size="14" lengthAdjust="spacing" textLength="145" x="813.8333" y="78.2295">product_code: TEXT</text><path d="M803,84.9948 C801.0633,84.9948 799.5,86.5581 799.5,88.4948 C799.5,90.4315 801.0633,91.9948 803,91.9948 C804.9367,91.9948 806.5,90.4315 806.5,88.4948 C806.5,86.5581 804.9367,84.9948 803,84.9948 " fill="#EFEFEF" style="stroke:;stroke-width:0.0;stroke-dasharray:;"/><text fill="#000000" font-family="sans-serif" font-size="14" lengthAdjust="spacing" textLength="86" x="813.8333" y="94.5264">name: TEXT</text><path d="M803,101.2917 C801.0633,101.2917 799.5,102.855 799.5,104.7917 C799.5,106.7283 801.0633,108.2917 803,108.2917 C804.9367,108.2917 806.5,106.7283 806.5,104.7917 C806.5,102.855 804.9367,101.2917 803,101.2917 " fill="#EFEFEF" style="stroke:;stroke-width:0.0;stroke-dasharray:;"/><text fill="#000000" font-family="sans-serif" font-size="14" lengthAdjust="spacing" textLength="128" x="813.8333" y="110.8232">description: TEXT</text><path d="M803,117.5885 C801.0633,117.5885 799.5,119.1519 799.5,121.0885 C799.5,123.0252 801.0633,124.5885 803,124.5885 C804.9367,124.5885 806.5,123.0252 806.5,121.0885 C806.5,119.1519 804.9367,117.5885 803,117.5885 " fill="#EFEFEF" style="stroke:;stroke-width:0.0;stroke-dasharray:;"/><text fill="#000000" font-family="sans-serif" font-size="14" lengthAdjust="spacing" textLength="122" x="813.8333" y="127.1201">active: BOOLEAN</text><path d="M803,133.8854 C801.0633,133.8854 799.5,135.4488 799.5,137.3854 C799.5,139.3221 801.0633,140.8854 803,140.8854 C804.9367,140.8854 806.5,139.3221 806.5,137.3854 C806.5,135.4488 804.9367,133.8854 803,133.8854 " fill="#EFEFEF" style="stroke:;stroke-width:0.0;stroke-dasharray:;"/><text fill="#000000" font-family="sans-serif" font-size="14" lengthAdjust="spacing" textLength="83" x="813.8333" y="143.417">price: TEXT</text><path d="M803,150.1823 C801.0633,150.1823 799.5,151.7456 799.5,153.6823 C799.5,155.619 801.0633,157.1823 803,157.1823 C804.9367,157.1823 806.5,155.619 806.5,153.6823 C806.5,151.7456 804.9367,150.1823 803,150.1823 " fill="#EFEFEF" style="stroke:;stroke-width:0.0;stroke-dasharray:;"/><text fill="#000000" font-family="sans-serif" font-size="14" lengthAdjust="spacing" textLength="341" x="813.8333" y="159.7139">created_at: TIMESTAMP WITHOUT TIME ZONE(6)</text><path d="M803,166.4792 C801.0633,166.4792 799.5,168.0425 799.5,169.9792 C799.5,171.9158 801.0633,173.4792 803,173.4792 C804.9367,173.4792 806.5,171.9158 806.5,169.9792 C806.5,168.0425 804.9367,166.4792 803,166.4792 " fill="#EFEFEF" style="stroke:;stroke-width:0.0;stroke-dasharray:;"/><text fill="#000000" font-family="sans-serif" font-size="14" lengthAdjust="spacing" textLength="345" x="813.8333" y="176.0107">updated_at: TIMESTAMP WITHOUT TIME ZONE(6)</text></g><!--class invoices--><g id="elem_invoices"><rect codeLine="54" fill="#FFFFFF" height="160.0156" id="invoices" rx="2.5" ry="2.5" style="stroke:#2E8B57;stroke-width:0.5;" width="372.3333" x="221.5" y="243"/><text fill="#000000" font-family="sans-serif" font-size="14" font-weight="bold" lengthAdjust="spacing" textLength="66" x="374.6667" y="260.9951">Invoices</text><text fill="#808080" font-family="sans-serif" font-size="10" lengthAdjust="spacing" textLength="52" x="381.6667" y="273.5791">(invoices)</text><line style="stroke:#2E8B57;stroke-width:0.5;" x1="222.5" x2="592.8333" y1="280.9375" y2="280.9375"/><path d="M234.9167,288.401 C233.3067,288.401 232,289.7077 232,291.3177 C232,291.5044 232,291.691 232.035,291.866 L228.5,295.401 L228.5,297.7344 L232,297.7344 L232,295.401 L234.3333,295.401 L234.3333,294.2344 L234.3683,294.1994 C234.5433,294.2344 234.73,294.2344 234.9167,294.2344 C236.5267,294.2344 237.8333,292.9277 237.8333,291.3177 C237.8333,289.7077 236.5267,288.401 234.9167,288.401 M235.5,289.5677 C236.1417,289.5677 236.6667,290.0927 236.6667,290.7344 C236.6667,291.376 236.1417,291.901 235.5,291.901 C234.8583,291.901 234.3333,291.376 234.3333,290.7344 C234.3333,290.0927 234.8583,289.5677 235.5,289.5677 " fill="#B8860B" style="stroke:;stroke-width:0.0;stroke-dasharray:;"/><text fill="#000000" font-family="sans-serif" font-size="14" font-weight="bold" lengthAdjust="spacing" textLength="72" x="243.8333" y="297.9326">invoiceid</text><text fill="#000000" font-family="sans-serif" font-size="14" lengthAdjust="spacing" textLength="42" x="315.8333" y="297.9326">: UUID</text><path d="M232,304.6979 C230.0633,304.6979 228.5,306.2613 228.5,308.1979 C228.5,310.1346 230.0633,311.6979 232,311.6979 C233.9367,311.6979 235.5,310.1346 235.5,308.1979 C235.5,306.2613 233.9367,304.6979 232,304.6979 " fill="#EFEFEF" style="stroke:;stroke-width:0.0;stroke-dasharray:;"/><text fill="#000000" font-family="sans-serif" font-size="14" lengthAdjust="spacing" textLength="153" x="242.8333" y="314.2295">invoicdnumber: TEXT</text><path d="M232,320.9948 C230.0633,320.9948 228.5,322.5581 228.5,324.4948 C228.5,326.4315 230.0633,327.9948 232,327.9948 C233.9367,327.9948 235.5,326.4315 235.5,324.4948 C235.5,322.5581 233.9367,320.9948 232,320.9948 " fill="#EFEFEF" style="stroke:;stroke-width:0.0;stroke-dasharray:;"/><text fill="#000000" font-family="sans-serif" font-size="14" lengthAdjust="spacing" textLength="90" x="242.8333" y="330.5264">status: TEXT</text><path d="M232,337.2917 C230.0633,337.2917 228.5,338.855 228.5,340.7917 C228.5,342.7283 230.0633,344.2917 232,344.2917 C233.9367,344.2917 235.5,342.7283 235.5,340.7917 C235.5,338.855 233.9367,337.2917 232,337.2917 " fill="#EFEFEF" style="stroke:;stroke-width:0.0;stroke-dasharray:;"/><text fill="#000000" font-family="sans-serif" font-size="14" lengthAdjust="spacing" textLength="322" x="242.8333" y="346.8232">duedate: TIMESTAMP WITHOUT TIME ZONE(6)</text><path d="M232,353.5885 C230.0633,353.5885 228.5,355.1519 228.5,357.0885 C228.5,359.0252 230.0633,360.5885 232,360.5885 C233.9367,360.5885 235.5,359.0252 235.5,357.0885 C235.5,355.1519 233.9367,353.5885 232,353.5885 " fill="#EFEFEF" style="stroke:;stroke-width:0.0;stroke-dasharray:;"/><text fill="#000000" font-family="sans-serif" font-size="14" lengthAdjust="spacing" textLength="341" x="242.8333" y="363.1201">created_at: TIMESTAMP WITHOUT TIME ZONE(6)</text><path d="M232,369.8854 C230.0633,369.8854 228.5,371.4488 228.5,373.3854 C228.5,375.3221 230.0633,376.8854 232,376.8854 C233.9367,376.8854 235.5,375.3221 235.5,373.3854 C235.5,371.4488 233.9367,369.8854 232,369.8854 " fill="#EFEFEF" style="stroke:;stroke-width:0.0;stroke-dasharray:;"/><text fill="#000000" font-family="sans-serif" font-size="14" lengthAdjust="spacing" textLength="345" x="242.8333" y="379.417">updated_at: TIMESTAMP WITHOUT TIME ZONE(6)</text><path d="M234.9167,386.1823 C233.3067,386.1823 232,387.489 232,389.099 C232,389.2856 232,389.4723 232.035,389.6473 L228.5,393.1823 L228.5,395.5156 L232,395.5156 L232,393.1823 L234.3333,393.1823 L234.3333,392.0156 L234.3683,391.9806 C234.5433,392.0156 234.73,392.0156 234.9167,392.0156 C236.5267,392.0156 237.8333,390.709 237.8333,389.099 C237.8333,387.489 236.5267,386.1823 234.9167,386.1823 M235.5,387.349 C236.1417,387.349 236.6667,387.874 236.6667,388.5156 C236.6667,389.1573 236.1417,389.6823 235.5,389.6823 C234.8583,389.6823 234.3333,389.1573 234.3333,388.5156 C234.3333,387.874 234.8583,387.349 235.5,387.349 " fill="#AAAAAA" style="stroke:;stroke-width:0.0;stroke-dasharray:;"/><text fill="#000000" font-family="sans-serif" font-size="14" lengthAdjust="spacing" textLength="161" x="242.8333" y="395.7139">customerId: UUID &#171;FK&#187;</text></g><!--link products to invoiceitems--><g id="link_products_invoiceitems"><path codeLine="64" d="M174.75,120.137 C174.75,120.137 174.75,259.375 174.75,259.375 " fill="none" id="products-invoiceitems" style="stroke:#2E8B57;stroke-width:1.0;"/><line style="stroke:#2E8B57;stroke-width:1.0;" x1="170.75" x2="178.75" y1="116.137" y2="116.137"/><line style="stroke:#2E8B57;stroke-width:1.0;" x1="170.75" x2="178.75" y1="119.137" y2="119.137"/><line style="stroke:#2E8B57;stroke-width:1.0;" x1="174.75" x2="174.75" y1="120.137" y2="112.137"/><line style="stroke:#2E8B57;stroke-width:1.0;" x1="174.75" x2="180.75" y1="259.375" y2="267.375"/><line style="stroke:#2E8B57;stroke-width:1.0;" x1="174.75" x2="168.75" y1="259.375" y2="267.375"/><line style="stroke:#2E8B57;stroke-width:1.0;" x1="174.75" x2="174.75" y1="259.375" y2="267.375"/><ellipse cx="174.75" cy="253.375" fill="none" rx="4" ry="4" style="stroke:#2E8B57;stroke-width:1.0;"/></g><!--link invoices to invoiceitems--><g id="link_invoices_invoiceitems"><path codeLine="65" d="M96.5,120.137 C96.5,120.137 96.5,259.375 96.5,259.375 " fill="none" id="invoices-invoiceitems" style="stroke:#2E8B57;stroke-width:1.0;"/><line style="stroke:#2E8B57;stroke-width:1.0;" x1="92.5" x2="100.5" y1="116.137" y2="116.137"/><line style="stroke:#2E8B57;stroke-width:1.0;" x1="92.5" x2="100.5" y1="119.137" y2="119.137"/><line style="stroke:#2E8B57;stroke-width:1.0;" x1="96.5" x2="96.5" y1="120.137" y2="112.137"/><line style="stroke:#2E8B57;stroke-width:1.0;" x1="96.5" x2="102.5" y1="259.375" y2="267.375"/><line style="stroke:#2E8B57;stroke-width:1.0;" x1="96.5" x2="90.5" y1="259.375" y2="267.375"/><line style="stroke:#2E8B57;stroke-width:1.0;" x1="96.5" x2="96.5" y1="259.375" y2="267.375"/><ellipse cx="96.5" cy="253.375" fill="none" rx="4" ry="4" style="stroke:#2E8B57;stroke-width:1.0;"/></g><!--link customers to invoices--><g id="link_customers_invoices"><path codeLine="66" d="M309.5,120.137 C309.5,120.137 309.5,234.821 309.5,234.821 " fill="none" id="customers-invoices" style="stroke:#2E8B57;stroke-width:1.0;"/><line style="stroke:#2E8B57;stroke-width:1.0;" x1="305.5" x2="313.5" y1="116.137" y2="116.137"/><line style="stroke:#2E8B57;stroke-width:1.0;" x1="305.5" x2="313.5" y1="119.137" y2="119.137"/><line style="stroke:#2E8B57;stroke-width:1.0;" x1="309.5" x2="309.5" y1="120.137" y2="112.137"/><line style="stroke:#2E8B57;stroke-width:1.0;" x1="309.5" x2="315.5" y1="234.821" y2="242.821"/><line style="stroke:#2E8B57;stroke-width:1.0;" x1="309.5" x2="303.5" y1="234.821" y2="242.821"/><line style="stroke:#2E8B57;stroke-width:1.0;" x1="309.5" x2="309.5" y1="234.821" y2="242.821"/><ellipse cx="309.5" cy="228.821" fill="none" rx="4" ry="4" style="stroke:#2E8B57;stroke-width:1.0;"/></g><!--SRC=[lLHHRzem47xFhxXcqWHI6Tl3zb2baMYRTj5Mg3hGfcbIPU83B18xivrIHldlivD0qk9fwakJXyJttNS-VtVd8uepnX4qcQROGKuoF0OwjTyk8DTChy4Ffc691Frf-8i7Cy4rAFO7Jp-yXqIaGfxE9Lc7dPeNzAr7w7lUKHqzN-Awyz25pOnXIhTW0WObyUI2oEMLI2doMq73uArn38D-YONmO3VS1vaz3r95U3CedmFkdcSCHSPTpEZIleQP8MMa9p4HahP3U0j64PH6YKAlSrIL8KEz4BHU94mcANgU5Zbe0LEXjSY0CXDDCy4zJoqPpuaa6KXHS6hsu2ZXOykUcZHjU13I16u1Qa6eM34-Xnb95RQG1U5q9PdMo6ki1IOfKGes7fZdZ2JBURdnkJqLh1PCOuaCf1IhogYGp2KYhnX619JFWArdJbZs2CJyNh04OusPEWPMhPXTGHU8UcgnIPJLRviPXUu9J2Rn1HYuhW_yBaZLRmQBX-FeAhgrS5bsoAMWHQBZXXa4br_2SEzGXpzqsEuJFo-KAGrAatMo-wrIRfPDlZkRErdRwDO-ZdwCstRC24jTGBuGtCaWb4eqvN91feFkIzBPQFGr6WpRO2AHQAHtH9VK-3hwDXvSty3tUFnvD1cN5lWv6aQTJzqshyZf2tYDUZTL1OnuTIrgxVQhHhhQv5Qk1kyIGPrw_4jPYYgHBBSpzMAjScbQmyLwRH7hsMdcvkdCkER5AM85KbvaKtENE0wcDD65iwbeWJRtbvttTNJQpV9kz9p3xDV2lDirdW-FZxsUs83Vlddynd4dxdyTzzV0WQVo_m80]--></g></svg>