<?xml version="1.0" encoding="us-ascii" standalone="no"?><svg xmlns="http://www.w3.org/2000/svg" xmlns:xlink="http://www.w3.org/1999/xlink" contentStyleType="text/css" height="410px" preserveAspectRatio="none" style="width:1171px;height:410px;background:#FFFFFF;" version="1.1" viewBox="0 0 1171 410" width="1171px" zoomAndPan="magnify"><defs/><g><!--cluster invoice--><g id="cluster_invoice"><path d="M807.5,43 L865.5,43 A3.75,3.75 0 0 1 868,45.5 L875,65.2969 L1120.5,65.2969 A2.5,2.5 0 0 1 1123,67.7969 L1123,125.5 A2.5,2.5 0 0 1 1120.5,128 L807.5,128 A2.5,2.5 0 0 1 805,125.5 L805,45.5 A2.5,2.5 0 0 1 807.5,43 " fill="none" style="stroke:#000000;stroke-width:1.5;"/><line style="stroke:#000000;stroke-width:1.5;" x1="805" x2="875" y1="65.2969" y2="65.2969"/><text fill="#000000" font-family="sans-serif" font-size="14" font-weight="bold" lengthAdjust="spacing" textLength="57" x="809" y="57.9951">invoice</text></g><!--class customers--><g id="elem_customers"><rect fill="#FFFFFF" height="34.2969" id="customers" rx="2.5" ry="2.5" style="stroke:#2E8B57;stroke-width:0.5;" width="81" x="821.5" y="78"/><text fill="#000000" font-family="sans-serif" font-size="14" lengthAdjust="spacing" textLength="75" x="824.5" y="95.9951">customers</text><line style="stroke:#2E8B57;stroke-width:0.5;" x1="822.5" x2="901.5" y1="104.2969" y2="104.2969"/></g><!--class products--><g id="elem_products"><rect fill="#FFFFFF" height="34.2969" id="products" rx="2.5" ry="2.5" style="stroke:#2E8B57;stroke-width:0.5;" width="70" x="938" y="78"/><text fill="#000000" font-family="sans-serif" font-size="14" lengthAdjust="spacing" textLength="64" x="941" y="95.9951">products</text><line style="stroke:#2E8B57;stroke-width:0.5;" x1="939" x2="1007" y1="104.2969" y2="104.2969"/></g><!--class invoices--><g id="elem_invoices"><rect fill="#FFFFFF" height="34.2969" id="invoices" rx="2.5" ry="2.5" style="stroke:#2E8B57;stroke-width:0.5;" width="64" x="1043" y="78"/><text fill="#000000" font-family="sans-serif" font-size="14" lengthAdjust="spacing" textLength="58" x="1046" y="95.9951">invoices</text><line style="stroke:#2E8B57;stroke-width:0.5;" x1="1044" x2="1106" y1="104.2969" y2="104.2969"/></g><!--class products--><g id="elem_products"><rect codeLine="25" fill="#FFFFFF" height="160.0156" id="products" rx="2.5" ry="2.5" style="stroke:#2E8B57;stroke-width:0.5;" width="372.3333" x="7" y="15"/><text fill="#000000" font-family="sans-serif" font-size="14" font-weight="bold" lengthAdjust="spacing" textLength="73" x="156.6667" y="32.9951">Products</text><text fill="#808080" font-family="sans-serif" font-size="10" lengthAdjust="spacing" textLength="55" x="165.6667" y="45.5791">(products)</text><line style="stroke:#2E8B57;stroke-width:0.5;" x1="8" x2="378.3333" y1="52.9375" y2="52.9375"/><path d="M20.4167,60.401 C18.8067,60.401 17.5,61.7077 17.5,63.3177 C17.5,63.5044 17.5,63.691 17.535,63.866 L14,67.401 L14,69.7344 L17.5,69.7344 L17.5,67.401 L19.8333,67.401 L19.8333,66.2344 L19.8683,66.1994 C20.0433,66.2344 20.23,66.2344 20.4167,66.2344 C22.0267,66.2344 23.3333,64.9277 23.3333,63.3177 C23.3333,61.7077 22.0267,60.401 20.4167,60.401 M21,61.5677 C21.6417,61.5677 22.1667,62.0927 22.1667,62.7344 C22.1667,63.376 21.6417,63.901 21,63.901 C20.3583,63.901 19.8333,63.376 19.8333,62.7344 C19.8333,62.0927 20.3583,61.5677 21,61.5677 " fill="#B8860B" style="stroke:;stroke-width:0.0;stroke-dasharray:;"/><text fill="#000000" font-family="sans-serif" font-size="14" font-weight="bold" lengthAdjust="spacing" textLength="79" x="29.3333" y="69.9326">productid</text><text fill="#000000" font-family="sans-serif" font-size="14" lengthAdjust="spacing" textLength="42" x="108.3333" y="69.9326">: UUID</text><path d="M17.5,76.6979 C15.5633,76.6979 14,78.2612 14,80.1979 C14,82.1346 15.5633,83.6979 17.5,83.6979 C19.4367,83.6979 21,82.1346 21,80.1979 C21,78.2612 19.4367,76.6979 17.5,76.6979 " fill="#EFEFEF" style="stroke:;stroke-width:0.0;stroke-dasharray:;"/><text fill="#000000" font-family="sans-serif" font-size="14" lengthAdjust="spacing" textLength="86" x="28.3333" y="86.2295">name: TEXT</text><path d="M17.5,92.9948 C15.5633,92.9948 14,94.5581 14,96.4948 C14,98.4315 15.5633,99.9948 17.5,99.9948 C19.4367,99.9948 21,98.4315 21,96.4948 C21,94.5581 19.4367,92.9948 17.5,92.9948 " fill="#EFEFEF" style="stroke:;stroke-width:0.0;stroke-dasharray:;"/><text fill="#000000" font-family="sans-serif" font-size="14" lengthAdjust="spacing" textLength="128" x="28.3333" y="102.5264">description: TEXT</text><path d="M17.5,109.2917 C15.5633,109.2917 14,110.855 14,112.7917 C14,114.7283 15.5633,116.2917 17.5,116.2917 C19.4367,116.2917 21,114.7283 21,112.7917 C21,110.855 19.4367,109.2917 17.5,109.2917 " fill="#EFEFEF" style="stroke:;stroke-width:0.0;stroke-dasharray:;"/><text fill="#000000" font-family="sans-serif" font-size="14" lengthAdjust="spacing" textLength="122" x="28.3333" y="118.8232">active: BOOLEAN</text><path d="M17.5,125.5885 C15.5633,125.5885 14,127.1519 14,129.0885 C14,131.0252 15.5633,132.5885 17.5,132.5885 C19.4367,132.5885 21,131.0252 21,129.0885 C21,127.1519 19.4367,125.5885 17.5,125.5885 " fill="#EFEFEF" style="stroke:;stroke-width:0.0;stroke-dasharray:;"/><text fill="#000000" font-family="sans-serif" font-size="14" lengthAdjust="spacing" textLength="110" x="28.3333" y="135.1201">price: NUMERIC</text><path d="M17.5,141.8854 C15.5633,141.8854 14,143.4488 14,145.3854 C14,147.3221 15.5633,148.8854 17.5,148.8854 C19.4367,148.8854 21,147.3221 21,145.3854 C21,143.4488 19.4367,141.8854 17.5,141.8854 " fill="#EFEFEF" style="stroke:;stroke-width:0.0;stroke-dasharray:;"/><text fill="#000000" font-family="sans-serif" font-size="14" lengthAdjust="spacing" textLength="341" x="28.3333" y="151.417">created_at: TIMESTAMP WITHOUT TIME ZONE(6)</text><path d="M17.5,158.1823 C15.5633,158.1823 14,159.7456 14,161.6823 C14,163.619 15.5633,165.1823 17.5,165.1823 C19.4367,165.1823 21,163.619 21,161.6823 C21,159.7456 19.4367,158.1823 17.5,158.1823 " fill="#EFEFEF" style="stroke:;stroke-width:0.0;stroke-dasharray:;"/><text fill="#000000" font-family="sans-serif" font-size="14" lengthAdjust="spacing" textLength="345" x="28.3333" y="167.7139">updated_at: TIMESTAMP WITHOUT TIME ZONE(6)</text></g><!--class customers--><g id="elem_customers"><rect codeLine="35" fill="#FFFFFF" height="176.3125" id="customers" rx="2.5" ry="2.5" style="stroke:#2E8B57;stroke-width:0.5;" width="372.3333" x="414" y="7"/><text fill="#000000" font-family="sans-serif" font-size="14" font-weight="bold" lengthAdjust="spacing" textLength="87" x="556.6667" y="24.9951">Customers</text><text fill="#808080" font-family="sans-serif" font-size="10" lengthAdjust="spacing" textLength="64" x="568.1667" y="37.5791">(customers)</text><line style="stroke:#2E8B57;stroke-width:0.5;" x1="415" x2="785.3333" y1="44.9375" y2="44.9375"/><path d="M427.4167,52.401 C425.8067,52.401 424.5,53.7077 424.5,55.3177 C424.5,55.5044 424.5,55.691 424.535,55.866 L421,59.401 L421,61.7344 L424.5,61.7344 L424.5,59.401 L426.8333,59.401 L426.8333,58.2344 L426.8683,58.1994 C427.0433,58.2344 427.23,58.2344 427.4167,58.2344 C429.0267,58.2344 430.3333,56.9277 430.3333,55.3177 C430.3333,53.7077 429.0267,52.401 427.4167,52.401 M428,53.5677 C428.6417,53.5677 429.1667,54.0927 429.1667,54.7344 C429.1667,55.376 428.6417,55.901 428,55.901 C427.3583,55.901 426.8333,55.376 426.8333,54.7344 C426.8333,54.0927 427.3583,53.5677 428,53.5677 " fill="#B8860B" style="stroke:;stroke-width:0.0;stroke-dasharray:;"/><text fill="#000000" font-family="sans-serif" font-size="14" font-weight="bold" lengthAdjust="spacing" textLength="92" x="436.3333" y="61.9326">customerid</text><text fill="#000000" font-family="sans-serif" font-size="14" lengthAdjust="spacing" textLength="42" x="528.3333" y="61.9326">: UUID</text><path d="M424.5,68.6979 C422.5633,68.6979 421,70.2612 421,72.1979 C421,74.1346 422.5633,75.6979 424.5,75.6979 C426.4367,75.6979 428,74.1346 428,72.1979 C428,70.2612 426.4367,68.6979 424.5,68.6979 " fill="#EFEFEF" style="stroke:;stroke-width:0.0;stroke-dasharray:;"/><text fill="#000000" font-family="sans-serif" font-size="14" lengthAdjust="spacing" textLength="86" x="435.3333" y="78.2295">name: TEXT</text><path d="M424.5,84.9948 C422.5633,84.9948 421,86.5581 421,88.4948 C421,90.4315 422.5633,91.9948 424.5,91.9948 C426.4367,91.9948 428,90.4315 428,88.4948 C428,86.5581 426.4367,84.9948 424.5,84.9948 " fill="#EFEFEF" style="stroke:;stroke-width:0.0;stroke-dasharray:;"/><text fill="#000000" font-family="sans-serif" font-size="14" lengthAdjust="spacing" textLength="85" x="435.3333" y="94.5264">email: TEXT</text><path d="M424.5,101.2917 C422.5633,101.2917 421,102.855 421,104.7917 C421,106.7283 422.5633,108.2917 424.5,108.2917 C426.4367,108.2917 428,106.7283 428,104.7917 C428,102.855 426.4367,101.2917 424.5,101.2917 " fill="#EFEFEF" style="stroke:;stroke-width:0.0;stroke-dasharray:;"/><text fill="#000000" font-family="sans-serif" font-size="14" lengthAdjust="spacing" textLength="92" x="435.3333" y="110.8232">phone: TEXT</text><path d="M424.5,117.5885 C422.5633,117.5885 421,119.1519 421,121.0885 C421,123.0252 422.5633,124.5885 424.5,124.5885 C426.4367,124.5885 428,123.0252 428,121.0885 C428,119.1519 426.4367,117.5885 424.5,117.5885 " fill="#EFEFEF" style="stroke:;stroke-width:0.0;stroke-dasharray:;"/><text fill="#000000" font-family="sans-serif" font-size="14" lengthAdjust="spacing" textLength="101" x="435.3333" y="127.1201">address: TEXT</text><path d="M424.5,133.8854 C422.5633,133.8854 421,135.4488 421,137.3854 C421,139.3221 422.5633,140.8854 424.5,140.8854 C426.4367,140.8854 428,139.3221 428,137.3854 C428,135.4488 426.4367,133.8854 424.5,133.8854 " fill="#EFEFEF" style="stroke:;stroke-width:0.0;stroke-dasharray:;"/><text fill="#000000" font-family="sans-serif" font-size="14" lengthAdjust="spacing" textLength="122" x="435.3333" y="143.417">active: BOOLEAN</text><path d="M424.5,150.1823 C422.5633,150.1823 421,151.7456 421,153.6823 C421,155.619 422.5633,157.1823 424.5,157.1823 C426.4367,157.1823 428,155.619 428,153.6823 C428,151.7456 426.4367,150.1823 424.5,150.1823 " fill="#EFEFEF" style="stroke:;stroke-width:0.0;stroke-dasharray:;"/><text fill="#000000" font-family="sans-serif" font-size="14" lengthAdjust="spacing" textLength="341" x="435.3333" y="159.7139">created_at: TIMESTAMP WITHOUT TIME ZONE(6)</text><path d="M424.5,166.4792 C422.5633,166.4792 421,168.0425 421,169.9792 C421,171.9158 422.5633,173.4792 424.5,173.4792 C426.4367,173.4792 428,171.9158 428,169.9792 C428,168.0425 426.4367,166.4792 424.5,166.4792 " fill="#EFEFEF" style="stroke:;stroke-width:0.0;stroke-dasharray:;"/><text fill="#000000" font-family="sans-serif" font-size="14" lengthAdjust="spacing" textLength="345" x="435.3333" y="176.0107">updated_at: TIMESTAMP WITHOUT TIME ZONE(6)</text></g><!--class invoices--><g id="elem_invoices"><rect codeLine="46" fill="#FFFFFF" height="160.0156" id="invoices" rx="2.5" ry="2.5" style="stroke:#2E8B57;stroke-width:0.5;" width="372.3333" x="578" y="243"/><text fill="#000000" font-family="sans-serif" font-size="14" font-weight="bold" lengthAdjust="spacing" textLength="66" x="731.1667" y="260.9951">Invoices</text><text fill="#808080" font-family="sans-serif" font-size="10" lengthAdjust="spacing" textLength="52" x="738.1667" y="273.5791">(invoices)</text><line style="stroke:#2E8B57;stroke-width:0.5;" x1="579" x2="949.3333" y1="280.9375" y2="280.9375"/><path d="M591.4167,288.401 C589.8067,288.401 588.5,289.7077 588.5,291.3177 C588.5,291.5044 588.5,291.691 588.535,291.866 L585,295.401 L585,297.7344 L588.5,297.7344 L588.5,295.401 L590.8333,295.401 L590.8333,294.2344 L590.8683,294.1994 C591.0433,294.2344 591.23,294.2344 591.4167,294.2344 C593.0267,294.2344 594.3333,292.9277 594.3333,291.3177 C594.3333,289.7077 593.0267,288.401 591.4167,288.401 M592,289.5677 C592.6417,289.5677 593.1667,290.0927 593.1667,290.7344 C593.1667,291.376 592.6417,291.901 592,291.901 C591.3583,291.901 590.8333,291.376 590.8333,290.7344 C590.8333,290.0927 591.3583,289.5677 592,289.5677 " fill="#B8860B" style="stroke:;stroke-width:0.0;stroke-dasharray:;"/><text fill="#000000" font-family="sans-serif" font-size="14" font-weight="bold" lengthAdjust="spacing" textLength="72" x="600.3333" y="297.9326">invoiceid</text><text fill="#000000" font-family="sans-serif" font-size="14" lengthAdjust="spacing" textLength="42" x="672.3333" y="297.9326">: UUID</text><path d="M588.5,304.6979 C586.5633,304.6979 585,306.2613 585,308.1979 C585,310.1346 586.5633,311.6979 588.5,311.6979 C590.4367,311.6979 592,310.1346 592,308.1979 C592,306.2613 590.4367,304.6979 588.5,304.6979 " fill="#EFEFEF" style="stroke:;stroke-width:0.0;stroke-dasharray:;"/><text fill="#000000" font-family="sans-serif" font-size="14" lengthAdjust="spacing" textLength="153" x="599.3333" y="314.2295">invoicdnumber: TEXT</text><path d="M588.5,320.9948 C586.5633,320.9948 585,322.5581 585,324.4948 C585,326.4315 586.5633,327.9948 588.5,327.9948 C590.4367,327.9948 592,326.4315 592,324.4948 C592,322.5581 590.4367,320.9948 588.5,320.9948 " fill="#EFEFEF" style="stroke:;stroke-width:0.0;stroke-dasharray:;"/><text fill="#000000" font-family="sans-serif" font-size="14" lengthAdjust="spacing" textLength="90" x="599.3333" y="330.5264">status: TEXT</text><path d="M588.5,337.2917 C586.5633,337.2917 585,338.855 585,340.7917 C585,342.7283 586.5633,344.2917 588.5,344.2917 C590.4367,344.2917 592,342.7283 592,340.7917 C592,338.855 590.4367,337.2917 588.5,337.2917 " fill="#EFEFEF" style="stroke:;stroke-width:0.0;stroke-dasharray:;"/><text fill="#000000" font-family="sans-serif" font-size="14" lengthAdjust="spacing" textLength="322" x="599.3333" y="346.8232">duedate: TIMESTAMP WITHOUT TIME ZONE(6)</text><path d="M588.5,353.5885 C586.5633,353.5885 585,355.1519 585,357.0885 C585,359.0252 586.5633,360.5885 588.5,360.5885 C590.4367,360.5885 592,359.0252 592,357.0885 C592,355.1519 590.4367,353.5885 588.5,353.5885 " fill="#EFEFEF" style="stroke:;stroke-width:0.0;stroke-dasharray:;"/><text fill="#000000" font-family="sans-serif" font-size="14" lengthAdjust="spacing" textLength="341" x="599.3333" y="363.1201">created_at: TIMESTAMP WITHOUT TIME ZONE(6)</text><path d="M588.5,369.8854 C586.5633,369.8854 585,371.4488 585,373.3854 C585,375.3221 586.5633,376.8854 588.5,376.8854 C590.4367,376.8854 592,375.3221 592,373.3854 C592,371.4488 590.4367,369.8854 588.5,369.8854 " fill="#EFEFEF" style="stroke:;stroke-width:0.0;stroke-dasharray:;"/><text fill="#000000" font-family="sans-serif" font-size="14" lengthAdjust="spacing" textLength="345" x="599.3333" y="379.417">updated_at: TIMESTAMP WITHOUT TIME ZONE(6)</text><path d="M591.4167,386.1823 C589.8067,386.1823 588.5,387.489 588.5,389.099 C588.5,389.2856 588.5,389.4723 588.535,389.6473 L585,393.1823 L585,395.5156 L588.5,395.5156 L588.5,393.1823 L590.8333,393.1823 L590.8333,392.0156 L590.8683,391.9806 C591.0433,392.0156 591.23,392.0156 591.4167,392.0156 C593.0267,392.0156 594.3333,390.709 594.3333,389.099 C594.3333,387.489 593.0267,386.1823 591.4167,386.1823 M592,387.349 C592.6417,387.349 593.1667,387.874 593.1667,388.5156 C593.1667,389.1573 592.6417,389.6823 592,389.6823 C591.3583,389.6823 590.8333,389.1573 590.8333,388.5156 C590.8333,387.874 591.3583,387.349 592,387.349 " fill="#AAAAAA" style="stroke:;stroke-width:0.0;stroke-dasharray:;"/><text fill="#000000" font-family="sans-serif" font-size="14" lengthAdjust="spacing" textLength="161" x="599.3333" y="395.7139">customerId: UUID &#171;FK&#187;</text></g><!--class invoiceitems--><g id="elem_invoiceitems"><rect codeLine="56" fill="#FFFFFF" height="111.125" id="invoiceitems" rx="2.5" ry="2.5" style="stroke:#2E8B57;stroke-width:0.5;" width="179.3333" x="985.5" y="267.5"/><text fill="#000000" font-family="sans-serif" font-size="14" font-weight="bold" lengthAdjust="spacing" textLength="103" x="1023.6667" y="285.4951">InvoiceItems</text><text fill="#808080" font-family="sans-serif" font-size="10" lengthAdjust="spacing" textLength="77" x="1036.6667" y="298.0791">(invoiceitems)</text><line style="stroke:#2E8B57;stroke-width:0.5;" x1="986.5" x2="1163.8333" y1="305.4375" y2="305.4375"/><path d="M998.9167,312.901 C997.3067,312.901 996,314.2077 996,315.8177 C996,316.0044 996,316.191 996.035,316.366 L992.5,319.901 L992.5,322.2344 L996,322.2344 L996,319.901 L998.3333,319.901 L998.3333,318.7344 L998.3683,318.6994 C998.5433,318.7344 998.73,318.7344 998.9167,318.7344 C1000.5267,318.7344 1001.8333,317.4277 1001.8333,315.8177 C1001.8333,314.2077 1000.5267,312.901 998.9167,312.901 M999.5,314.0677 C1000.1417,314.0677 1000.6667,314.5927 1000.6667,315.2344 C1000.6667,315.876 1000.1417,316.401 999.5,316.401 C998.8583,316.401 998.3333,315.876 998.3333,315.2344 C998.3333,314.5927 998.8583,314.0677 999.5,314.0677 " fill="#B8860B" style="stroke:;stroke-width:0.0;stroke-dasharray:;"/><text fill="#000000" font-family="sans-serif" font-size="14" font-weight="bold" lengthAdjust="spacing" textLength="109" x="1007.8333" y="322.4326">invoiceitemid</text><text fill="#000000" font-family="sans-serif" font-size="14" lengthAdjust="spacing" textLength="42" x="1116.8333" y="322.4326">: UUID</text><path d="M996,329.1979 C994.0633,329.1979 992.5,330.7613 992.5,332.6979 C992.5,334.6346 994.0633,336.1979 996,336.1979 C997.9367,336.1979 999.5,334.6346 999.5,332.6979 C999.5,330.7613 997.9367,329.1979 996,329.1979 " fill="#EFEFEF" style="stroke:;stroke-width:0.0;stroke-dasharray:;"/><text fill="#000000" font-family="sans-serif" font-size="14" lengthAdjust="spacing" textLength="131" x="1006.8333" y="338.7295">quantity: INTEGER</text><path d="M998.9167,345.4948 C997.3067,345.4948 996,346.8015 996,348.4115 C996,348.5981 996,348.7848 996.035,348.9598 L992.5,352.4948 L992.5,354.8281 L996,354.8281 L996,352.4948 L998.3333,352.4948 L998.3333,351.3281 L998.3683,351.2931 C998.5433,351.3281 998.73,351.3281 998.9167,351.3281 C1000.5267,351.3281 1001.8333,350.0215 1001.8333,348.4115 C1001.8333,346.8015 1000.5267,345.4948 998.9167,345.4948 M999.5,346.6615 C1000.1417,346.6615 1000.6667,347.1865 1000.6667,347.8281 C1000.6667,348.4698 1000.1417,348.9948 999.5,348.9948 C998.8583,348.9948 998.3333,348.4698 998.3333,347.8281 C998.3333,347.1865 998.8583,346.6615 999.5,346.6615 " fill="#AAAAAA" style="stroke:;stroke-width:0.0;stroke-dasharray:;"/><text fill="#000000" font-family="sans-serif" font-size="14" lengthAdjust="spacing" textLength="150" x="1006.8333" y="355.0264">productId: UUID &#171;FK&#187;</text><path d="M998.9167,361.7917 C997.3067,361.7917 996,363.0983 996,364.7083 C996,364.895 996,365.0817 996.035,365.2567 L992.5,368.7917 L992.5,371.125 L996,371.125 L996,368.7917 L998.3333,368.7917 L998.3333,367.625 L998.3683,367.59 C998.5433,367.625 998.73,367.625 998.9167,367.625 C1000.5267,367.625 1001.8333,366.3183 1001.8333,364.7083 C1001.8333,363.0983 1000.5267,361.7917 998.9167,361.7917 M999.5,362.9583 C1000.1417,362.9583 1000.6667,363.4833 1000.6667,364.125 C1000.6667,364.7667 1000.1417,365.2917 999.5,365.2917 C998.8583,365.2917 998.3333,364.7667 998.3333,364.125 C998.3333,363.4833 998.8583,362.9583 999.5,362.9583 " fill="#AAAAAA" style="stroke:;stroke-width:0.0;stroke-dasharray:;"/><text fill="#000000" font-family="sans-serif" font-size="14" lengthAdjust="spacing" textLength="144" x="1006.8333" y="371.3232">invoiceId: UUID &#171;FK&#187;</text></g><!--link customers to invoices--><g id="link_customers_invoices"><path codeLine="63" d="M862,120.137 C862,120.137 862,234.821 862,234.821 " fill="none" id="customers-invoices" style="stroke:#2E8B57;stroke-width:1.0;"/><line style="stroke:#2E8B57;stroke-width:1.0;" x1="858" x2="866" y1="116.137" y2="116.137"/><line style="stroke:#2E8B57;stroke-width:1.0;" x1="858" x2="866" y1="119.137" y2="119.137"/><line style="stroke:#2E8B57;stroke-width:1.0;" x1="862" x2="862" y1="120.137" y2="112.137"/><line style="stroke:#2E8B57;stroke-width:1.0;" x1="862" x2="868" y1="234.821" y2="242.821"/><line style="stroke:#2E8B57;stroke-width:1.0;" x1="862" x2="856" y1="234.821" y2="242.821"/><line style="stroke:#2E8B57;stroke-width:1.0;" x1="862" x2="862" y1="234.821" y2="242.821"/><ellipse cx="862" cy="228.821" fill="none" rx="4" ry="4" style="stroke:#2E8B57;stroke-width:1.0;"/></g><!--link products to invoiceitems--><g id="link_products_invoiceitems"><path codeLine="64" d="M996.75,120.137 C996.75,120.137 996.75,259.375 996.75,259.375 " fill="none" id="products-invoiceitems" style="stroke:#2E8B57;stroke-width:1.0;"/><line style="stroke:#2E8B57;stroke-width:1.0;" x1="992.75" x2="1000.75" y1="116.137" y2="116.137"/><line style="stroke:#2E8B57;stroke-width:1.0;" x1="992.75" x2="1000.75" y1="119.137" y2="119.137"/><line style="stroke:#2E8B57;stroke-width:1.0;" x1="996.75" x2="996.75" y1="120.137" y2="112.137"/><line style="stroke:#2E8B57;stroke-width:1.0;" x1="996.75" x2="1002.75" y1="259.375" y2="267.375"/><line style="stroke:#2E8B57;stroke-width:1.0;" x1="996.75" x2="990.75" y1="259.375" y2="267.375"/><line style="stroke:#2E8B57;stroke-width:1.0;" x1="996.75" x2="996.75" y1="259.375" y2="267.375"/><ellipse cx="996.75" cy="253.375" fill="none" rx="4" ry="4" style="stroke:#2E8B57;stroke-width:1.0;"/></g><!--link invoices to invoiceitems--><g id="link_invoices_invoiceitems"><path codeLine="65" d="M1075,120.137 C1075,120.137 1075,259.375 1075,259.375 " fill="none" id="invoices-invoiceitems" style="stroke:#2E8B57;stroke-width:1.0;"/><line style="stroke:#2E8B57;stroke-width:1.0;" x1="1071" x2="1079" y1="116.137" y2="116.137"/><line style="stroke:#2E8B57;stroke-width:1.0;" x1="1071" x2="1079" y1="119.137" y2="119.137"/><line style="stroke:#2E8B57;stroke-width:1.0;" x1="1075" x2="1075" y1="120.137" y2="112.137"/><line style="stroke:#2E8B57;stroke-width:1.0;" x1="1075" x2="1081" y1="259.375" y2="267.375"/><line style="stroke:#2E8B57;stroke-width:1.0;" x1="1075" x2="1069" y1="259.375" y2="267.375"/><line style="stroke:#2E8B57;stroke-width:1.0;" x1="1075" x2="1075" y1="259.375" y2="267.375"/><ellipse cx="1075" cy="253.375" fill="none" rx="4" ry="4" style="stroke:#2E8B57;stroke-width:1.0;"/></g><!--SRC=[lLL1Rzem6BtdLtnbqWHI6TjXErHf94hJBjg0YWLjcYPD9lu0YyJERAUKKVxx72SaMSc5IyC1-xtlFTlFTd91SSauWYQB6Bl8IOANG1VvVm-GQwPtq74NdcNSmSBxnTsbu1eK-ulN7zv3968XhrUIxBnkgNC7UONNSPoBqZtTuAxxr8Fzac5C3s0CNIkykYLoSozYYdmcgEU-DOMUEx2S1q_vW9N9ygL9uV1cQ9yJRQKpG9RmDgL_b_-CCa7AI5zY92HjMZXhHX6KHeb2xr9K1P2WNWjQTY8cenWTHuiKj825q5eaG9bnqqnmnr4RnbCYIG9IP9oQCJXA-DZ0OpFDt1w4DCODGgq95Ll6Lx0aiS86ioQSRYNJ6dd9DSWe9ah1tW7pt91eix83Z_9LmNRDD5fcAANO5g12ifA8l52O452-80wEMQ4z8_0W1SqYhIuXBLlG0wBgNZwmtV4Zn2Zqhc0-3sx1KEL-G7vMSZpqVuHDdAAA94lpyDfeOlmUhV1cEltg3oTDCfKiijnaFlPdmQZ9HHA9HlgRQ6iRZFrluN3y0D-3yFDq7be4VaudVlTJhwdBKdg6xb3bDCgKEGaeJL3HiLaaLNVhg8xOULbXGbZSHgHhmLiLX5A9vdISc-nhfnVmHs7sqeJ7obQHNTMheokXzkGAal8iMPXRrx9gfOdEMlEW6UPpFs-zhvCJ56_3wjG4zTfTz-wBvvqc6MXCwZHPtlilqG8vJTN0xSd-oKZnVJ1SC0dzUtzMJwoy-QVpEXQKzgqJxvJak-gYTE3vkTyNUpXIgbDN7Lyy9qLsIOt2IjjU-0y0]--></g></svg>